RobotoSerifMicroWide-Super.ufo
<glyph name="numbersign" format="2">
  <advance width="802"/>
  <unicode hex="0023"/>
  <outline>
    <contour>
      <point x="142" y="0" type="line"/>
      <point x="247" y="0" type="line"/>
      <point x="413" y="780" type="line"/>
      <point x="307" y="780" type="line"/>
    </contour>
    <contour>
      <point x="36" y="181" type="line"/>
      <point x="710" y="181" type="line"/>
      <point x="710" y="339" type="line"/>
      <point x="36" y="339" type="line"/>
    </contour>
    <contour>
      <point x="92" y="472" type="line"/>
      <point x="766" y="472" type="line"/>
      <point x="766" y="630" type="line"/>
      <point x="92" y="630" type="line"/>
    </contour>
    <contour>
      <point x="386" y="0" type="line"/>
      <point x="491" y="0" type="line"/>
      <point x="657" y="780" type="line"/>
      <point x="549" y="780" type="line"/>
    </contour>
  </outline>
</glyph>
<glyph name="zero" format="2">
  <advance width="602"/>
  <unicode hex="0030"/>
  <outline>
    <contour>
      <point x="301" y="-11" type="curve" smooth="yes"/>
      <point x="464" y="-11"/>
      <point x="577" y="93"/>
      <point x="577" y="341" type="curve" smooth="yes"/>
      <point x="577" y="590"/>
      <point x="464" y="694"/>
      <point x="301" y="694" type="curve" smooth="yes"/>
      <point x="138" y="694"/>
      <point x="25" y="590"/>
      <point x="25" y="342" type="curve" smooth="yes"/>
      <point x="25" y="93"/>
      <point x="138" y="-11"/>
    </contour>
    <contour>
      <point x="301" y="88" type="curve" smooth="yes"/>
      <point x="246" y="88"/>
      <point x="227" y="113"/>
      <point x="227" y="342" type="curve" smooth="yes"/>
      <point x="227" y="570"/>
      <point x="246" y="595"/>
      <point x="301" y="595" type="curve" smooth="yes"/>
      <point x="356" y="595"/>
      <point x="375" y="570"/>
      <point x="375" y="341" type="curve" smooth="yes"/>
      <point x="375" y="113"/>
      <point x="356" y="88"/>
    </contour>
  </outline>
</glyph>
<glyph name="less" format="2">
  <advance width="602"/>
  <unicode hex="003C"/>
  <outline>
    <contour>
      <point x="515" y="617" type="line"/>
      <point x="87" y="410" type="line"/>
      <point x="87" y="312" type="line"/>
      <point x="183" y="312" type="line"/>
      <point x="515" y="456" type="line"/>
    </contour>
    <contour>
      <point x="515" y="221" type="line"/>
      <point x="183" y="365" type="line"/>
      <point x="87" y="364" type="line"/>
      <point x="87" y="260" type="line"/>
      <point x="515" y="53" type="line"/>
    </contour>
  </outline>
</glyph>
<glyph name="J" format="2">
  <advance width="768"/>
  <unicode hex="004A"/>
  <anchor x="512" y="741" name="top"/>
  <outline>
    <contour>
      <point x="316" y="710" type="line"/>
      <point x="316" y="610" type="line"/>
      <point x="348" y="610" type="line" smooth="yes"/>
      <point x="381" y="610"/>
      <point x="414" y="603"/>
      <point x="414" y="574" type="curve" smooth="yes"/>
      <point x="414" y="242" type="line" smooth="yes"/>
      <point x="414" y="118"/>
      <point x="377" y="81"/>
      <point x="301" y="81" type="curve" smooth="yes"/>
      <point x="239" y="81"/>
      <point x="181" y="104"/>
      <point x="160" y="117" type="curve"/>
      <point x="120" y="137"/>
      <point x="180" y="57"/>
      <point x="223" y="43" type="curve"/>
      <point x="223" y="281" type="line"/>
      <point x="44" y="281" type="line"/>
      <point x="44" y="41" type="line"/>
      <point x="67" y="22"/>
      <point x="171" y="-25"/>
      <point x="314" y="-25" type="curve" smooth="yes"/>
      <point x="520" y="-25"/>
      <point x="649" y="55"/>
      <point x="649" y="253" type="curve" smooth="yes"/>
      <point x="649" y="574" type="line" smooth="yes"/>
      <point x="649" y="603"/>
      <point x="673" y="610"/>
      <point x="706" y="610" type="curve" smooth="yes"/>
      <point x="728" y="610" type="line"/>
      <point x="728" y="710" type="line"/>
    </contour>
  </outline>
</glyph>
<glyph name="N" format="2">
  <advance width="890"/>
  <unicode hex="004E"/>
  <anchor x="453" y="741" name="top"/>
  <anchor x="453" y="0" name="bottom"/>
  <outline>
    <contour>
      <point x="42" y="0" type="line"/>
      <point x="283" y="0" type="line"/>
      <point x="283" y="101" type="line"/>
      <point x="270" y="101" type="line" smooth="yes"/>
      <point x="248" y="101"/>
      <point x="215" y="104"/>
      <point x="215" y="111" type="curve"/>
      <point x="215" y="647" type="line"/>
      <point x="183" y="666" type="line"/>
      <point x="543" y="0" type="line"/>
      <point x="782" y="0" type="line"/>
      <point x="782" y="579" type="line" smooth="yes"/>
      <point x="782" y="608"/>
      <point x="806" y="610"/>
      <point x="839" y="610" type="curve" smooth="yes"/>
      <point x="849" y="610" type="line"/>
      <point x="849" y="710" type="line"/>
      <point x="609" y="710" type="line"/>
      <point x="609" y="610" type="line"/>
      <point x="623" y="610" type="line" smooth="yes"/>
      <point x="644" y="610"/>
      <point x="678" y="607"/>
      <point x="678" y="600" type="curve" smooth="yes"/>
      <point x="678" y="196" type="line"/>
      <point x="699" y="197" type="line"/>
      <point x="411" y="710" type="line"/>
      <point x="42" y="710" type="line"/>
      <point x="42" y="610" type="line"/>
      <point x="54" y="610" type="line" smooth="yes"/>
      <point x="87" y="610"/>
      <point x="111" y="603"/>
      <point x="111" y="574" type="curve" smooth="yes"/>
      <point x="111" y="137" type="line" smooth="yes"/>
      <point x="111" y="108"/>
      <point x="87" y="101"/>
      <point x="54" y="101" type="curve" smooth="yes"/>
      <point x="42" y="101" type="line"/>
    </contour>
  </outline>
</glyph>
<glyph name="P" format="2">
  <advance width="803"/>
  <unicode hex="0050"/>
  <outline>
    <contour>
      <point x="345" y="111" type="line" smooth="yes"/>
      <point x="345" y="104"/>
      <point x="370" y="101"/>
      <point x="407" y="101" type="curve" smooth="yes"/>
      <point x="433" y="101" type="line"/>
      <point x="433" y="0" type="line"/>
      <point x="42" y="0" type="line"/>
      <point x="42" y="90" type="line"/>
      <point x="53" y="90" type="line" smooth="yes"/>
      <point x="86" y="90"/>
      <point x="110" y="97"/>
      <point x="110" y="126" type="curve" smooth="yes"/>
      <point x="110" y="585" type="line" smooth="yes"/>
      <point x="110" y="614"/>
      <point x="86" y="621"/>
      <point x="53" y="621" type="curve" smooth="yes"/>
      <point x="42" y="621" type="line"/>
      <point x="42" y="710" type="line"/>
      <point x="499" y="710" type="line" smooth="yes"/>
      <point x="667" y="710"/>
      <point x="773" y="633"/>
      <point x="773" y="495" type="curve" smooth="yes"/>
      <point x="773" y="351"/>
      <point x="659" y="266"/>
      <point x="494" y="266" type="curve" smooth="yes"/>
      <point x="313" y="266" type="line"/>
      <point x="313" y="364" type="line"/>
      <point x="446" y="364" type="line" smooth="yes"/>
      <point x="509" y="364"/>
      <point x="545" y="403"/>
      <point x="545" y="489" type="curve" smooth="yes"/>
      <point x="545" y="577"/>
      <point x="509" y="611"/>
      <point x="449" y="611" type="curve" smooth="yes"/>
      <point x="345" y="611" type="line"/>
    </contour>
  </outline>
</glyph>
<glyph name="Q" format="2">
  <advance width="903"/>
  <unicode hex="0051"/>
  <outline>
    <contour>
      <point x="392" y="-3" type="line"/>
      <point x="392" y="-220"/>
      <point x="490" y="-290"/>
      <point x="688" y="-290" type="curve" smooth="yes"/>
      <point x="748" y="-290"/>
      <point x="815" y="-283"/>
      <point x="859" y="-275" type="curve"/>
      <point x="859" y="-98" type="line"/>
      <point x="809" y="-113"/>
      <point x="749" y="-130"/>
      <point x="679" y="-130" type="curve" smooth="yes"/>
      <point x="550" y="-130"/>
      <point x="514" y="-93"/>
      <point x="511" y="10" type="curve"/>
    </contour>
    <contour>
      <point x="452" y="-25" type="curve" smooth="yes"/>
      <point x="697" y="-25"/>
      <point x="855" y="97"/>
      <point x="855" y="355" type="curve" smooth="yes"/>
      <point x="855" y="612"/>
      <point x="697" y="735"/>
      <point x="452" y="735" type="curve" smooth="yes"/>
      <point x="206" y="735"/>
      <point x="48" y="612"/>
      <point x="48" y="355" type="curve" smooth="yes"/>
      <point x="48" y="97"/>
      <point x="206" y="-25"/>
    </contour>
    <contour>
      <point x="452" y="83" type="curve" smooth="yes"/>
      <point x="339" y="83"/>
      <point x="292" y="145"/>
      <point x="292" y="355" type="curve" smooth="yes"/>
      <point x="292" y="565"/>
      <point x="340" y="627"/>
      <point x="452" y="627" type="curve" smooth="yes"/>
      <point x="564" y="627"/>
      <point x="612" y="565"/>
      <point x="611" y="355" type="curve" smooth="yes"/>
      <point x="611" y="145"/>
      <point x="564" y="83"/>
    </contour>
  </outline>
</glyph>
<glyph name="R" format="2">
  <advance width="888"/>
  <unicode hex="0052"/>
  <anchor x="478" y="741" name="top"/>
  <anchor x="478" y="0" name="bottom"/>
  <outline>
    <contour>
      <point x="424" y="319" type="line"/>
      <point x="625" y="393" type="line"/>
      <point x="756" y="162" type="line" smooth="yes"/>
      <point x="786" y="111"/>
      <point x="810" y="101"/>
      <point x="846" y="101" type="curve" smooth="yes"/>
      <point x="855" y="101" type="line"/>
      <point x="855" y="0" type="line"/>
      <point x="582" y="0" type="line"/>
    </contour>
    <contour>
      <point x="345" y="111" type="line" smooth="yes"/>
      <point x="345" y="104"/>
      <point x="370" y="101"/>
      <point x="407" y="101" type="curve" smooth="yes"/>
      <point x="422" y="101" type="line"/>
      <point x="422" y="0" type="line"/>
      <point x="42" y="0" type="line"/>
      <point x="42" y="101" type="line"/>
      <point x="54" y="101" type="line" smooth="yes"/>
      <point x="86" y="101"/>
      <point x="111" y="108"/>
      <point x="111" y="137" type="curve" smooth="yes"/>
      <point x="111" y="574" type="line" smooth="yes"/>
      <point x="111" y="603"/>
      <point x="86" y="610"/>
      <point x="54" y="610" type="curve" smooth="yes"/>
      <point x="42" y="610" type="line"/>
      <point x="42" y="710" type="line"/>
      <point x="510" y="710" type="line" smooth="yes"/>
      <point x="695" y="710"/>
      <point x="794" y="654"/>
      <point x="794" y="521" type="curve" smooth="yes"/>
      <point x="794" y="413"/>
      <point x="710" y="346"/>
      <point x="562" y="326" type="curve"/>
      <point x="546" y="302"/>
      <point x="548" y="297"/>
      <point x="536" y="279" type="curve"/>
      <point x="307" y="279" type="line"/>
      <point x="307" y="372" type="line"/>
      <point x="459" y="372" type="line" smooth="yes"/>
      <point x="525" y="372"/>
      <point x="554" y="424"/>
      <point x="554" y="507" type="curve" smooth="yes"/>
      <point x="554" y="581"/>
      <point x="529" y="617"/>
      <point x="467" y="617" type="curve" smooth="yes"/>
      <point x="345" y="617" type="line"/>
    </contour>
  </outline>
</glyph>
<glyph name="T" format="2">
  <advance width="842"/>
  <unicode hex="0054"/>
  <anchor x="413" y="741" name="top"/>
  <anchor x="413" y="0" name="bottom"/>
  <outline>
    <contour>
      <point x="304" y="137" type="line" smooth="yes"/>
      <point x="304" y="108"/>
      <point x="275" y="101"/>
      <point x="241" y="101" type="curve" smooth="yes"/>
      <point x="221" y="101" type="line"/>
      <point x="221" y="0" type="line"/>
      <point x="620" y="0" type="line"/>
      <point x="620" y="101" type="line"/>
      <point x="600" y="101" type="line" smooth="yes"/>
      <point x="567" y="101"/>
      <point x="538" y="108"/>
      <point x="538" y="137" type="curve" smooth="yes"/>
      <point x="538" y="607" type="line"/>
      <point x="560" y="607" type="line" smooth="yes"/>
      <point x="648" y="607"/>
      <point x="671" y="590"/>
      <point x="674" y="554" type="curve" smooth="yes"/>
      <point x="687" y="398" type="line"/>
      <point x="801" y="398" type="line"/>
      <point x="801" y="710" type="line"/>
      <point x="41" y="710" type="line"/>
      <point x="41" y="398" type="line"/>
      <point x="154" y="398" type="line"/>
      <point x="168" y="554" type="line" smooth="yes"/>
      <point x="171" y="590"/>
      <point x="193" y="607"/>
      <point x="281" y="607" type="curve" smooth="yes"/>
      <point x="304" y="607" type="line"/>
    </contour>
  </outline>
</glyph>
<glyph name="W" format="2">
  <advance width="1198"/>
  <unicode hex="0057"/>
  <anchor x="600" y="741" name="top"/>
  <outline>
    <contour>
      <point x="25" y="710" type="line"/>
      <point x="25" y="610" type="line"/>
      <point x="34" y="610" type="line" smooth="yes"/>
      <point x="63" y="610"/>
      <point x="82" y="605"/>
      <point x="87" y="586" type="curve" smooth="yes"/>
      <point x="228" y="0" type="line"/>
      <point x="479" y="0" type="line"/>
      <point x="620" y="539" type="line"/>
      <point x="604" y="542" type="line"/>
      <point x="733" y="0" type="line"/>
      <point x="971" y="0" type="line"/>
      <point x="1109" y="565" type="line" smooth="yes"/>
      <point x="1116" y="594"/>
      <point x="1133" y="610"/>
      <point x="1164" y="610" type="curve" smooth="yes"/>
      <point x="1173" y="610" type="line"/>
      <point x="1173" y="710" type="line"/>
      <point x="954" y="710" type="line"/>
      <point x="954" y="610" type="line"/>
      <point x="966" y="610" type="line" smooth="yes"/>
      <point x="1001" y="610"/>
      <point x="1018" y="600"/>
      <point x="1018" y="591" type="curve"/>
      <point x="903" y="131" type="line"/>
      <point x="923" y="149" type="line"/>
      <point x="788" y="710" type="line"/>
      <point x="563" y="710" type="line"/>
      <point x="421" y="166" type="line"/>
      <point x="433" y="143" type="line"/>
      <point x="329" y="599" type="line"/>
      <point x="329" y="606"/>
      <point x="350" y="610"/>
      <point x="380" y="610" type="curve" smooth="yes"/>
      <point x="392" y="610" type="line"/>
      <point x="392" y="710" type="line"/>
    </contour>
  </outline>
</glyph>
<glyph name="Y" format="2">
  <advance width="801"/>
  <unicode hex="0059"/>
  <anchor x="400" y="741" name="top"/>
  <anchor x="400" y="0" name="bottom"/>
  <outline>
    <contour>
      <point x="289" y="279" type="line"/>
      <point x="289" y="137" type="line" smooth="yes"/>
      <point x="289" y="108"/>
      <point x="260" y="101"/>
      <point x="226" y="101" type="curve" smooth="yes"/>
      <point x="207" y="101" type="line"/>
      <point x="207" y="0" type="line"/>
      <point x="605" y="0" type="line"/>
      <point x="605" y="101" type="line"/>
      <point x="585" y="101" type="line" smooth="yes"/>
      <point x="552" y="101"/>
      <point x="523" y="108"/>
      <point x="523" y="137" type="curve" smooth="yes"/>
      <point x="523" y="279" type="line"/>
      <point x="500" y="226" type="line"/>
      <point x="697" y="544" type="line" smooth="yes"/>
      <point x="723" y="588"/>
      <point x="736" y="610"/>
      <point x="767" y="610" type="curve" smooth="yes"/>
      <point x="774" y="610" type="line"/>
      <point x="774" y="710" type="line"/>
      <point x="538" y="710" type="line"/>
      <point x="538" y="610" type="line"/>
      <point x="547" y="610" type="line" smooth="yes"/>
      <point x="593" y="610"/>
      <point x="611" y="600"/>
      <point x="611" y="587" type="curve"/>
      <point x="434" y="287" type="line"/>
      <point x="499" y="301" type="line"/>
      <point x="328" y="599" type="line"/>
      <point x="328" y="606"/>
      <point x="345" y="610"/>
      <point x="391" y="610" type="curve" smooth="yes"/>
      <point x="402" y="610" type="line"/>
      <point x="402" y="710" type="line"/>
      <point x="27" y="710" type="line"/>
      <point x="27" y="610" type="line"/>
      <point x="33" y="610" type="line" smooth="yes"/>
      <point x="68" y="610"/>
      <point x="82" y="586"/>
      <point x="107" y="543" type="curve" smooth="yes"/>
      <point x="304" y="237" type="line"/>
    </contour>
  </outline>
</glyph>
<glyph name="g" format="2">
  <advance width="815"/>
  <unicode hex="0067"/>
  <anchor x="377" y="545" name="top"/>
  <outline>
    <contour>
      <point x="799" y="446" type="curve"/>
      <point x="799" y="620" type="line"/>
      <point x="669" y="632"/>
      <point x="624" y="572"/>
      <point x="581" y="467" type="curve"/>
      <point x="606" y="490" type="line"/>
      <point x="675" y="475"/>
      <point x="711" y="469"/>
    </contour>
    <contour>
      <point x="372" y="194" type="curve" smooth="yes"/>
      <point x="554" y="194"/>
      <point x="666" y="265"/>
      <point x="666" y="386" type="curve" smooth="yes"/>
      <point x="666" y="507"/>
      <point x="554" y="583"/>
      <point x="372" y="583" type="curve" smooth="yes"/>
      <point x="192" y="583"/>
      <point x="81" y="507"/>
      <point x="81" y="386" type="curve" smooth="yes"/>
      <point x="81" y="265"/>
      <point x="189" y="194"/>
    </contour>
    <contour>
      <point x="372" y="276" type="curve" smooth="yes"/>
      <point x="305" y="276"/>
      <point x="283" y="301"/>
      <point x="283" y="384" type="curve" smooth="yes"/>
      <point x="283" y="469"/>
      <point x="306" y="495"/>
      <point x="372" y="495" type="curve" smooth="yes"/>
      <point x="441" y="495"/>
      <point x="461" y="469"/>
      <point x="461" y="384" type="curve" smooth="yes"/>
      <point x="461" y="301"/>
      <point x="441" y="276"/>
    </contour>
    <contour>
      <point x="203" y="-256" type="curve" smooth="yes"/>
      <point x="482" y="-256" type="line" smooth="yes"/>
      <point x="650" y="-256"/>
      <point x="757" y="-186"/>
      <point x="757" y="-43" type="curve" smooth="yes"/>
      <point x="757" y="67"/>
      <point x="693" y="122"/>
      <point x="567" y="122" type="curve" smooth="yes"/>
      <point x="257" y="122" type="line" smooth="yes"/>
      <point x="220" y="122"/>
      <point x="206" y="131"/>
      <point x="206" y="157" type="curve" smooth="yes"/>
      <point x="206" y="182"/>
      <point x="219" y="198"/>
      <point x="271" y="230" type="curve"/>
      <point x="225" y="244" type="line"/>
      <point x="118" y="211"/>
      <point x="49" y="160"/>
      <point x="49" y="78" type="curve" smooth="yes"/>
      <point x="49" y="2"/>
      <point x="97" y="-42"/>
      <point x="179" y="-52" type="curve"/>
      <point x="147" y="-73" type="line"/>
      <point x="541" y="-73" type="line" smooth="yes"/>
      <point x="564" y="-73"/>
      <point x="575" y="-93"/>
      <point x="575" y="-113" type="curve" smooth="yes"/>
      <point x="575" y="-157"/>
      <point x="553" y="-172"/>
      <point x="469" y="-172" type="curve" smooth="yes"/>
      <point x="256" y="-172" type="line" smooth="yes"/>
      <point x="197" y="-172"/>
      <point x="176" y="-156"/>
      <point x="176" y="-128" type="curve" smooth="yes"/>
      <point x="176" y="-93"/>
      <point x="181" y="-75"/>
      <point x="227" y="-51" type="curve"/>
      <point x="199" y="-33" type="line"/>
      <point x="62" y="-56"/>
      <point x="12" y="-86"/>
      <point x="12" y="-154" type="curve" smooth="yes"/>
      <point x="12" y="-226"/>
      <point x="63" y="-256"/>
    </contour>
  </outline>
</glyph>
<glyph name="n" format="2">
  <advance width="814"/>
  <unicode hex="006E"/>
  <anchor x="392" y="551" name="top"/>
  <anchor x="407" y="0" name="bottom"/>
  <outline>
    <contour>
      <point x="44" y="0" type="line"/>
      <point x="370" y="0" type="line"/>
      <point x="370" y="84" type="line"/>
      <point x="365" y="84" type="line" smooth="yes"/>
      <point x="349" y="84"/>
      <point x="323" y="86"/>
      <point x="323" y="92" type="curve" smooth="yes"/>
      <point x="323" y="418" type="line"/>
      <point x="320" y="428" type="line"/>
      <point x="294" y="572" type="line"/>
      <point x="44" y="572" type="line"/>
      <point x="44" y="471" type="line"/>
      <point x="52" y="469" type="line" smooth="yes"/>
      <point x="86" y="462"/>
      <point x="102" y="459"/>
      <point x="102" y="445" type="curve" smooth="yes"/>
      <point x="102" y="149" type="line" smooth="yes"/>
      <point x="102" y="99"/>
      <point x="83" y="84"/>
      <point x="47" y="84" type="curve" smooth="yes"/>
      <point x="44" y="84" type="line"/>
    </contour>
    <contour>
      <point x="783" y="0" type="line"/>
      <point x="783" y="84" type="line"/>
      <point x="779" y="84" type="line" smooth="yes"/>
      <point x="742" y="84"/>
      <point x="725" y="99"/>
      <point x="725" y="149" type="curve" smooth="yes"/>
      <point x="725" y="419" type="line" smooth="yes"/>
      <point x="725" y="525"/>
      <point x="667" y="585"/>
      <point x="553" y="585" type="curve" smooth="yes"/>
      <point x="448" y="585"/>
      <point x="348" y="505"/>
      <point x="296" y="411" type="curve"/>
      <point x="289" y="331" type="line"/>
      <point x="352" y="407"/>
      <point x="401" y="449"/>
      <point x="450" y="449" type="curve" smooth="yes"/>
      <point x="490" y="449"/>
      <point x="504" y="431"/>
      <point x="504" y="402" type="curve" smooth="yes"/>
      <point x="504" y="92" type="line" smooth="yes"/>
      <point x="504" y="86"/>
      <point x="479" y="84"/>
      <point x="461" y="84" type="curve" smooth="yes"/>
      <point x="457" y="84" type="line"/>
      <point x="457" y="0" type="line"/>
    </contour>
  </outline>
</glyph>
<glyph name="t" format="2">
  <advance width="555"/>
  <unicode hex="0074"/>
  <anchor x="231" y="675" name="top"/>
  <anchor x="427" y="681" name="right"/>
  <anchor x="356" y="0" name="bottom"/>
  <outline>
    <contour>
      <point x="22" y="465" type="line"/>
      <point x="523" y="465" type="line"/>
      <point x="523" y="572" type="line"/>
      <point x="253" y="572" type="line"/>
      <point x="126" y="632" type="line"/>
      <point x="126" y="573"/>
      <point x="89" y="567"/>
      <point x="33" y="567" type="curve" smooth="yes"/>
      <point x="22" y="567" type="line"/>
    </contour>
    <contour>
      <point x="340" y="173" type="curve" smooth="yes"/>
      <point x="340" y="737" type="line"/>
      <point x="126" y="737" type="line"/>
      <point x="126" y="561" type="line"/>
      <point x="119" y="552" type="line"/>
      <point x="119" y="153" type="line" smooth="yes"/>
      <point x="119" y="22"/>
      <point x="216" y="-12"/>
      <point x="355" y="-12" type="curve" smooth="yes"/>
      <point x="419" y="-12"/>
      <point x="481" y="-3"/>
      <point x="514" y="5" type="curve"/>
      <point x="514" y="118" type="line"/>
      <point x="506" y="118"/>
      <point x="472" y="113"/>
      <point x="433" y="113" type="curve" smooth="yes"/>
      <point x="376" y="113"/>
      <point x="340" y="122"/>
    </contour>
  </outline>
</glyph>
<glyph name="y" format="2">
  <advance width="788"/>
  <unicode hex="0079"/>
  <anchor x="387" y="551" name="top"/>
  <anchor x="401" y="-211" name="bottom"/>
  <outline>
    <contour>
      <point x="485" y="137" type="line"/>
      <point x="315" y="471" type="line"/>
      <point x="315" y="475"/>
      <point x="344" y="479"/>
      <point x="375" y="479" type="curve" smooth="yes"/>
      <point x="384" y="479" type="line"/>
      <point x="384" y="572" type="line"/>
      <point x="30" y="572" type="line"/>
      <point x="30" y="471" type="line"/>
      <point x="40" y="471" type="line"/>
      <point x="79" y="471"/>
      <point x="89" y="459"/>
      <point x="110" y="414" type="curve" smooth="yes"/>
      <point x="346" y="-63" type="line"/>
      <point x="428" y="52" type="line"/>
    </contour>
    <contour>
      <point x="482" y="14" type="curve" smooth="yes"/>
      <point x="677" y="412" type="line" smooth="yes"/>
      <point x="698" y="457"/>
      <point x="708" y="471"/>
      <point x="747" y="471" type="curve"/>
      <point x="757" y="471" type="line"/>
      <point x="757" y="572" type="line"/>
      <point x="519" y="572" type="line"/>
      <point x="519" y="479" type="line"/>
      <point x="524" y="479" type="line" smooth="yes"/>
      <point x="561" y="479"/>
      <point x="584" y="467"/>
      <point x="584" y="460" type="curve"/>
      <point x="415" y="105" type="line"/>
      <point x="364" y="54" type="line"/>
      <point x="320" y="-68"/>
      <point x="276" y="-119"/>
      <point x="175" y="-119" type="curve" smooth="yes"/>
      <point x="106" y="-119"/>
      <point x="39" y="-99"/>
      <point x="33" y="-97" type="curve"/>
      <point x="33" y="-232" type="line"/>
      <point x="53" y="-242"/>
      <point x="109" y="-254"/>
      <point x="168" y="-254" type="curve" smooth="yes"/>
      <point x="334" y="-254"/>
      <point x="389" y="-177"/>
    </contour>
  </outline>
</glyph>
<glyph name="z" format="2">
  <advance width="663"/>
  <unicode hex="007A"/>
  <anchor x="332" y="551" name="top"/>
  <anchor x="356" y="0" name="bottom"/>
  <outline>
    <contour>
      <point x="258" y="89" type="line"/>
      <point x="604" y="415" type="line"/>
      <point x="604" y="572" type="line"/>
      <point x="52" y="572" type="line"/>
      <point x="52" y="358" type="line"/>
      <point x="145" y="358" type="line"/>
      <point x="157" y="430" type="line" smooth="yes"/>
      <point x="164" y="467"/>
      <point x="186" y="473"/>
      <point x="246" y="473" type="curve" smooth="yes"/>
      <point x="470" y="473" type="line"/>
      <point x="402" y="484" type="line"/>
      <point x="52" y="162" type="line"/>
      <point x="52" y="0" type="line"/>
      <point x="625" y="0" type="line"/>
      <point x="625" y="225" type="line"/>
      <point x="530" y="225" type="line"/>
      <point x="517" y="142" type="line" smooth="yes"/>
      <point x="511" y="105"/>
      <point x="488" y="99"/>
      <point x="427" y="99" type="curve" smooth="yes"/>
      <point x="245" y="99" type="line"/>
    </contour>
  </outline>
</glyph>
<glyph name="asciitilde" format="2">
  <advance width="612"/>
  <unicode hex="007E"/>
  <outline>
    <contour>
      <point x="393" y="197" type="curve" smooth="yes"/>
      <point x="513" y="197"/>
      <point x="558" y="321"/>
      <point x="576" y="482" type="curve"/>
      <point x="475" y="500" type="line"/>
      <point x="460" y="422"/>
      <point x="450" y="341"/>
      <point x="410" y="341" type="curve" smooth="yes"/>
      <point x="357" y="341"/>
      <point x="357" y="495"/>
      <point x="218" y="495" type="curve" smooth="yes"/>
      <point x="98" y="495"/>
      <point x="58" y="383"/>
      <point x="37" y="221" type="curve"/>
      <point x="141" y="203" type="line"/>
      <point x="157" y="285"/>
      <point x="166" y="351"/>
      <point x="206" y="351" type="curve" smooth="yes"/>
      <point x="257" y="351"/>
      <point x="250" y="197"/>
    </contour>
  </outline>
</glyph>
<glyph name="cent" format="2">
  <advance width="602"/>
  <unicode hex="00A2"/>
  <outline>
    <contour>
      <point x="361" y="81" type="curve" smooth="yes"/>
      <point x="249" y="81"/>
      <point x="209" y="109"/>
      <point x="209" y="286" type="curve" smooth="yes"/>
      <point x="209" y="455"/>
      <point x="247" y="494"/>
      <point x="365" y="494" type="curve" smooth="yes"/>
      <point x="429" y="494"/>
      <point x="462" y="487"/>
      <point x="495" y="471" type="curve"/>
      <point x="490" y="478"/>
      <point x="505" y="534"/>
      <point x="466" y="530" type="curve"/>
      <point x="466" y="343" type="line"/>
      <point x="596" y="343" type="line"/>
      <point x="596" y="550" type="line"/>
      <point x="565" y="562"/>
      <point x="455" y="583"/>
      <point x="346" y="583" type="curve" smooth="yes"/>
      <point x="141" y="583"/>
      <point x="26" y="487"/>
      <point x="26" y="286" type="curve" smooth="yes"/>
      <point x="26" y="81"/>
      <point x="151" y="-12"/>
      <point x="347" y="-12" type="curve" smooth="yes"/>
      <point x="476" y="-12"/>
      <point x="560" y="31"/>
      <point x="601" y="150" type="curve"/>
      <point x="509" y="185" type="line"/>
      <point x="480" y="122"/>
      <point x="453" y="81"/>
    </contour>
    <contour>
      <point x="294" y="703" type="line"/>
      <point x="294" y="546" type="line"/>
      <point x="320" y="534" type="line"/>
      <point x="320" y="28" type="line"/>
      <point x="294" y="11" type="line"/>
      <point x="294" y="-166" type="line"/>
      <point x="410" y="-166" type="line"/>
      <point x="410" y="20" type="line"/>
      <point x="384" y="33" type="line"/>
      <point x="384" y="536" type="line"/>
      <point x="410" y="555" type="line"/>
      <point x="410" y="703" type="line"/>
    </contour>
  </outline>
</glyph>
<glyph name="yen" format="2">
  <advance width="602"/>
  <unicode hex="00A5"/>
  <outline>
    <contour>
      <point x="51" y="399" type="line"/>
      <point x="51" y="317" type="line"/>
      <point x="549" y="317" type="line"/>
      <point x="549" y="399" type="line"/>
    </contour>
    <contour>
      <point x="51" y="240" type="line"/>
      <point x="51" y="158" type="line"/>
      <point x="549" y="158" type="line"/>
      <point x="549" y="240" type="line"/>
    </contour>
    <contour>
      <point x="199" y="379" type="line"/>
      <point x="199" y="137" type="line" smooth="yes"/>
      <point x="199" y="108"/>
      <point x="170" y="101"/>
      <point x="136" y="101" type="curve" smooth="yes"/>
      <point x="113" y="101" type="line"/>
      <point x="113" y="0" type="line"/>
      <point x="487" y="0" type="line"/>
      <point x="487" y="101" type="line"/>
      <point x="463" y="101" type="line" smooth="yes"/>
      <point x="430" y="101"/>
      <point x="402" y="108"/>
      <point x="402" y="137" type="curve" smooth="yes"/>
      <point x="402" y="379" type="line"/>
    </contour>
    <contour>
      <point x="386" y="333" type="line"/>
      <point x="525" y="563" type="line" smooth="yes"/>
      <point x="544" y="594"/>
      <point x="558" y="610"/>
      <point x="588" y="610" type="curve" smooth="yes"/>
      <point x="593" y="610" type="line"/>
      <point x="593" y="710" type="line"/>
      <point x="401" y="710" type="line"/>
      <point x="401" y="610" type="line"/>
      <point x="405" y="610" type="line" smooth="yes"/>
      <point x="429" y="610"/>
      <point x="450" y="600"/>
      <point x="450" y="587" type="curve"/>
      <point x="326" y="375" type="line"/>
      <point x="376" y="375" type="line"/>
      <point x="260" y="599" type="line"/>
      <point x="260" y="606"/>
      <point x="279" y="610"/>
      <point x="302" y="610" type="curve" smooth="yes"/>
      <point x="312" y="610" type="line"/>
      <point x="312" y="710" type="line"/>
      <point x="9" y="710" type="line"/>
      <point x="9" y="610" type="line"/>
      <point x="15" y="610" type="line" smooth="yes"/>
      <point x="43" y="610"/>
      <point x="54" y="605"/>
      <point x="70" y="576" type="curve" smooth="yes"/>
      <point x="206" y="334" type="line"/>
    </contour>
  </outline>
</glyph>
<glyph name="brokenbar" format="2">
  <advance width="389"/>
  <unicode hex="00A6"/>
  <outline>
    <contour>
      <point x="131" y="780" type="line"/>
      <point x="131" y="404" type="line"/>
      <point x="258" y="404" type="line"/>
      <point x="258" y="780" type="line"/>
    </contour>
    <contour>
      <point x="131" y="218" type="line"/>
      <point x="131" y="-158" type="line"/>
      <point x="258" y="-158" type="line"/>
      <point x="258" y="218" type="line"/>
    </contour>
  </outline>
</glyph>
<glyph name="divide" format="2">
  <advance width="602"/>
  <unicode hex="00F7"/>
  <outline>
    <contour>
      <point x="427" y="622" type="curve" smooth="yes"/>
      <point x="427" y="701"/>
      <point x="377" y="738"/>
      <point x="301" y="738" type="curve" smooth="yes"/>
      <point x="225" y="738"/>
      <point x="175" y="701"/>
      <point x="175" y="622" type="curve" smooth="yes"/>
      <point x="175" y="545"/>
      <point x="225" y="507"/>
      <point x="301" y="507" type="curve" smooth="yes"/>
      <point x="377" y="507"/>
      <point x="427" y="545"/>
    </contour>
    <contour>
      <point x="427" y="121" type="curve" smooth="yes"/>
      <point x="427" y="200"/>
      <point x="377" y="236"/>
      <point x="301" y="236" type="curve" smooth="yes"/>
      <point x="225" y="236"/>
      <point x="175" y="200"/>
      <point x="175" y="121" type="curve" smooth="yes"/>
      <point x="175" y="43"/>
      <point x="225" y="6"/>
      <point x="301" y="6" type="curve" smooth="yes"/>
      <point x="377" y="6"/>
      <point x="427" y="43"/>
    </contour>
    <component base="minus" yOffset="42"/>
  </outline>
</glyph>
<glyph name="eogonek" format="2">
  <advance width="716"/>
  <unicode hex="0119"/>
  <outline>
    <contour>
      <point x="414" y="-252" type="curve" smooth="yes"/>
      <point x="512" y="-252"/>
      <point x="562" y="-225"/>
      <point x="605" y="-184" type="curve"/>
      <point x="558" y="-129" type="line"/>
      <point x="537" y="-145"/>
      <point x="512" y="-170"/>
      <point x="472" y="-170" type="curve" smooth="yes"/>
      <point x="434" y="-170"/>
      <point x="414" y="-153"/>
      <point x="414" y="-120" type="curve" smooth="yes"/>
      <point x="414" y="-54"/>
      <point x="533" y="-26"/>
      <point x="618" y="54" type="curve" smooth="yes"/>
      <point x="641" y="70"/>
      <point x="657" y="90"/>
      <point x="671" y="109" type="curve"/>
      <point x="586" y="166" type="line"/>
      <point x="545" y="112"/>
      <point x="500" y="93"/>
      <point x="416" y="93" type="curve" smooth="yes"/>
      <point x="302" y="93"/>
      <point x="255" y="129"/>
      <point x="255" y="283" type="curve" smooth="yes"/>
      <point x="255" y="464"/>
      <point x="295" y="491"/>
      <point x="374" y="491" type="curve" smooth="yes"/>
      <point x="450" y="491"/>
      <point x="474" y="464"/>
      <point x="478" y="297" type="curve"/>
      <point x="497" y="326" type="line"/>
      <point x="164" y="326" type="line"/>
      <point x="164" y="250" type="line"/>
      <point x="677" y="250" type="line"/>
      <point x="673" y="473"/>
      <point x="586" y="584"/>
      <point x="371" y="584" type="curve" smooth="yes"/>
      <point x="166" y="584"/>
      <point x="41" y="464"/>
      <point x="41" y="280" type="curve" smooth="yes"/>
      <point x="41" y="78"/>
      <point x="168" y="-15"/>
      <point x="392" y="-15" type="curve" smooth="yes"/>
      <point x="441" y="-15"/>
      <point x="482" y="-11"/>
      <point x="519" y="-1" type="curve"/>
      <point x="551" y="30" type="line"/>
      <point x="298" y="-51"/>
      <point x="223" y="-68"/>
      <point x="223" y="-150" type="curve" smooth="yes"/>
      <point x="223" y="-224"/>
      <point x="293" y="-252"/>
    </contour>
  </outline>
</glyph>
<glyph name="Eng" format="2">
  <advance width="890"/>
  <unicode hex="014A"/>
  <outline>
    <contour>
      <point x="537" y="-250" type="curve" smooth="yes"/>
      <point x="473" y="-250"/>
      <point x="425" y="-243"/>
      <point x="388" y="-231" type="curve"/>
      <point x="388" y="-120" type="line"/>
      <point x="414" y="-128"/>
      <point x="466" y="-141"/>
      <point x="531" y="-141" type="curve" smooth="yes"/>
      <point x="626" y="-141"/>
      <point x="665" y="-108"/>
      <point x="665" y="-35" type="curve" smooth="yes"/>
      <point x="665" y="73" type="line"/>
      <point x="705" y="-112" type="line"/>
      <point x="183" y="666" type="line"/>
      <point x="215" y="647" type="line"/>
      <point x="215" y="111" type="line" smooth="yes"/>
      <point x="215" y="104"/>
      <point x="248" y="101"/>
      <point x="270" y="101" type="curve" smooth="yes"/>
      <point x="283" y="101" type="line"/>
      <point x="283" y="0" type="line"/>
      <point x="42" y="0" type="line"/>
      <point x="42" y="101" type="line"/>
      <point x="54" y="101" type="line" smooth="yes"/>
      <point x="87" y="101"/>
      <point x="111" y="108"/>
      <point x="111" y="137" type="curve" smooth="yes"/>
      <point x="111" y="574" type="line" smooth="yes"/>
      <point x="111" y="603"/>
      <point x="87" y="610"/>
      <point x="54" y="610" type="curve" smooth="yes"/>
      <point x="42" y="610" type="line"/>
      <point x="42" y="710" type="line"/>
      <point x="411" y="710" type="line"/>
      <point x="761" y="224" type="line"/>
      <point x="678" y="196" type="line"/>
      <point x="678" y="600" type="line" smooth="yes"/>
      <point x="678" y="607"/>
      <point x="644" y="610"/>
      <point x="623" y="610" type="curve" smooth="yes"/>
      <point x="609" y="610" type="line"/>
      <point x="609" y="710" type="line"/>
      <point x="849" y="710" type="line"/>
      <point x="849" y="610" type="line"/>
      <point x="839" y="610" type="line" smooth="yes"/>
      <point x="806" y="610"/>
      <point x="782" y="608"/>
      <point x="782" y="579" type="curve" smooth="yes"/>
      <point x="782" y="-23" type="line" smooth="yes"/>
      <point x="782" y="-169"/>
      <point x="696" y="-250"/>
    </contour>
  </outline>
</glyph>
<glyph name="Tbar" format="2">
  <advance width="842"/>
  <unicode hex="0166"/>
  <outline>
    <contour>
      <point x="157" y="323" type="line"/>
      <point x="157" y="214" type="line"/>
      <point x="685" y="214" type="line"/>
      <point x="685" y="323" type="line"/>
    </contour>
    <component base="T"/>
  </outline>
</glyph>
<glyph name="Uogonek" format="2">
  <advance width="843"/>
  <unicode hex="0172"/>
  <outline>
    <contour>
      <point x="467" y="-252" type="curve" smooth="yes"/>
      <point x="575" y="-252"/>
      <point x="625" y="-225"/>
      <point x="668" y="-184" type="curve"/>
      <point x="621" y="-129" type="line"/>
      <point x="600" y="-145"/>
      <point x="574" y="-170"/>
      <point x="535" y="-170" type="curve" smooth="yes"/>
      <point x="497" y="-170"/>
      <point x="477" y="-153"/>
      <point x="477" y="-120" type="curve" smooth="yes"/>
      <point x="477" y="-59"/>
      <point x="578" y="-25"/>
      <point x="652" y="44" type="curve" smooth="yes"/>
      <point x="709" y="96"/>
      <point x="738" y="168"/>
      <point x="738" y="266" type="curve" smooth="yes"/>
      <point x="738" y="576" type="line" smooth="yes"/>
      <point x="738" y="604"/>
      <point x="762" y="610"/>
      <point x="796" y="610" type="curve" smooth="yes"/>
      <point x="807" y="610" type="line"/>
      <point x="807" y="710" type="line"/>
      <point x="562" y="710" type="line"/>
      <point x="562" y="610" type="line"/>
      <point x="576" y="610" type="line" smooth="yes"/>
      <point x="608" y="610"/>
      <point x="640" y="605"/>
      <point x="640" y="593" type="curve" smooth="yes"/>
      <point x="640" y="266" type="line" smooth="yes"/>
      <point x="640" y="144"/>
      <point x="581" y="91"/>
      <point x="489" y="91" type="curve" smooth="yes"/>
      <point x="389" y="91"/>
      <point x="340" y="138"/>
      <point x="340" y="266" type="curve" smooth="yes"/>
      <point x="340" y="600" type="line" smooth="yes"/>
      <point x="340" y="607"/>
      <point x="372" y="610"/>
      <point x="397" y="610" type="curve" smooth="yes"/>
      <point x="410" y="610" type="line"/>
      <point x="410" y="710" type="line"/>
      <point x="36" y="710" type="line"/>
      <point x="36" y="610" type="line"/>
      <point x="48" y="610" type="line" smooth="yes"/>
      <point x="81" y="610"/>
      <point x="105" y="603"/>
      <point x="105" y="574" type="curve" smooth="yes"/>
      <point x="105" y="266" type="line" smooth="yes"/>
      <point x="105" y="63"/>
      <point x="235" y="-25"/>
      <point x="433" y="-25" type="curve" smooth="yes"/>
      <point x="487" y="-25"/>
      <point x="538" y="-16"/>
      <point x="582" y="3" type="curve"/>
      <point x="605" y="44" type="line"/>
      <point x="360" y="-51"/>
      <point x="286" y="-70"/>
      <point x="286" y="-150" type="curve" smooth="yes"/>
      <point x="286" y="-224"/>
      <point x="355" y="-252"/>
    </contour>
  </outline>
</glyph>
<glyph name="uogonek" format="2">
  <advance width="805"/>
  <unicode hex="0173"/>
  <outline>
    <contour>
      <point x="314" y="572" type="line"/>
      <point x="29" y="572" type="line"/>
      <point x="29" y="471" type="line"/>
      <point x="43" y="469" type="line" smooth="yes"/>
      <point x="77" y="465"/>
      <point x="92" y="459"/>
      <point x="92" y="445" type="curve" smooth="yes"/>
      <point x="92" y="155" type="line" smooth="yes"/>
      <point x="92" y="49"/>
      <point x="150" y="-11"/>
      <point x="262" y="-11" type="curve" smooth="yes"/>
      <point x="365" y="-11"/>
      <point x="466" y="69"/>
      <point x="516" y="163" type="curve"/>
      <point x="523" y="243" type="line"/>
      <point x="461" y="166"/>
      <point x="413" y="125"/>
      <point x="367" y="125" type="curve" smooth="yes"/>
      <point x="327" y="125"/>
      <point x="314" y="143"/>
      <point x="314" y="172" type="curve" smooth="yes"/>
    </contour>
    <contour>
      <point x="710" y="572" type="line"/>
      <point x="411" y="572" type="line"/>
      <point x="411" y="472" type="line"/>
      <point x="431" y="470" type="line" smooth="yes"/>
      <point x="464" y="467"/>
      <point x="489" y="459"/>
      <point x="489" y="445" type="curve"/>
      <point x="489" y="164" type="line"/>
      <point x="493" y="136" type="line"/>
      <point x="524" y="0" type="line"/>
      <point x="769" y="0" type="line"/>
      <point x="769" y="95" type="line"/>
      <point x="760" y="97" type="line" smooth="yes"/>
      <point x="727" y="104"/>
      <point x="710" y="107"/>
      <point x="710" y="122" type="curve" smooth="yes"/>
    </contour>
    <contour>
      <point x="619" y="44" type="line"/>
      <point x="375" y="-51"/>
      <point x="301" y="-70"/>
      <point x="301" y="-150" type="curve" smooth="yes"/>
      <point x="301" y="-224"/>
      <point x="371" y="-252"/>
      <point x="482" y="-252" type="curve" smooth="yes"/>
      <point x="590" y="-252"/>
      <point x="640" y="-225"/>
      <point x="683" y="-184" type="curve"/>
      <point x="636" y="-129" type="line"/>
      <point x="616" y="-145"/>
      <point x="590" y="-170"/>
      <point x="550" y="-170" type="curve" smooth="yes"/>
      <point x="512" y="-170"/>
      <point x="492" y="-153"/>
      <point x="492" y="-120" type="curve" smooth="yes"/>
      <point x="492" y="-77"/>
      <point x="511" y="-70"/>
      <point x="642" y="7" type="curve"/>
    </contour>
  </outline>
</glyph>
<glyph name="Schwa" format="2">
  <advance width="848"/>
  <unicode hex="018F"/>
  <outline>
    <contour>
      <point x="406" y="734" type="curve" smooth="yes"/>
      <point x="239" y="734"/>
      <point x="141" y="683"/>
      <point x="63" y="570" type="curve"/>
      <point x="163" y="501" type="line"/>
      <point x="225" y="593"/>
      <point x="280" y="626"/>
      <point x="386" y="626" type="curve" smooth="yes"/>
      <point x="511" y="626"/>
      <point x="556" y="581"/>
      <point x="556" y="369" type="curve" smooth="yes"/>
      <point x="556" y="119"/>
      <point x="513" y="84"/>
      <point x="411" y="84" type="curve" smooth="yes"/>
      <point x="308" y="84"/>
      <point x="285" y="122"/>
      <point x="281" y="339" type="curve"/>
      <point x="259" y="307" type="line"/>
      <point x="674" y="307" type="line"/>
      <point x="674" y="401" type="line"/>
      <point x="48" y="401" type="line"/>
      <point x="53" y="115"/>
      <point x="145" y="-24"/>
      <point x="412" y="-24" type="curve" smooth="yes"/>
      <point x="657" y="-24"/>
      <point x="800" y="127"/>
      <point x="800" y="360" type="curve" smooth="yes"/>
      <point x="800" y="619"/>
      <point x="660" y="734"/>
    </contour>
  </outline>
</glyph>
<glyph name="verticallinelowmod" format="2">
  <advance width="538"/>
  <unicode hex="02CC"/>
  <outline>
    <contour>
      <point x="219" y="-323" type="line"/>
      <point x="318" y="-323" type="line"/>
      <point x="318" y="-50" type="line"/>
      <point x="219" y="-50" type="line"/>
    </contour>
  </outline>
</glyph>
<glyph name="ring" format="2">
  <advance width="538"/>
  <unicode hex="02DA"/>
  <anchor x="277" y="526" name="_top"/>
  <outline>
    <contour>
      <point x="277" y="693" type="curve" smooth="yes"/>
      <point x="228" y="693"/>
      <point x="202" y="715"/>
      <point x="202" y="760" type="curve" smooth="yes"/>
      <point x="202" y="805"/>
      <point x="228" y="828"/>
      <point x="277" y="828" type="curve" smooth="yes"/>
      <point x="326" y="828"/>
      <point x="352" y="805"/>
      <point x="352" y="760" type="curve" smooth="yes"/>
      <point x="352" y="715"/>
      <point x="326" y="693"/>
    </contour>
    <contour>
      <point x="277" y="910" type="curve" smooth="yes"/>
      <point x="162" y="910"/>
      <point x="91" y="847"/>
      <point x="91" y="760" type="curve" smooth="yes"/>
      <point x="91" y="674"/>
      <point x="162" y="610"/>
      <point x="277" y="610" type="curve" smooth="yes"/>
      <point x="392" y="610"/>
      <point x="463" y="674"/>
      <point x="463" y="760" type="curve" smooth="yes"/>
      <point x="463" y="847"/>
      <point x="392" y="910"/>
    </contour>
  </outline>
</glyph>
<glyph name="mu" format="2">
  <advance width="880"/>
  <unicode hex="03BC"/>
  <outline>
    <contour>
      <point x="653" y="-10" type="curve" smooth="yes"/>
      <point x="777" y="-10"/>
      <point x="833" y="71"/>
      <point x="860" y="133" type="curve"/>
      <point x="794" y="171" type="line"/>
      <point x="774" y="133"/>
      <point x="762" y="111"/>
      <point x="729" y="111" type="curve" smooth="yes"/>
      <point x="697" y="111"/>
      <point x="687" y="123"/>
      <point x="687" y="156" type="curve" smooth="yes"/>
      <point x="687" y="572" type="line"/>
      <point x="465" y="572" type="line"/>
      <point x="465" y="164" type="line"/>
      <point x="469" y="158" type="line"/>
      <point x="477" y="62"/>
      <point x="517" y="-10"/>
    </contour>
    <contour>
      <point x="147" y="216" type="line"/>
      <point x="162" y="72"/>
      <point x="213" y="-11"/>
      <point x="305" y="-11" type="curve" smooth="yes"/>
      <point x="387" y="-11"/>
      <point x="448" y="69"/>
      <point x="492" y="163" type="curve"/>
      <point x="498" y="243" type="line"/>
      <point x="438" y="166"/>
      <point x="390" y="125"/>
      <point x="343" y="125" type="curve" smooth="yes"/>
      <point x="303" y="125"/>
      <point x="290" y="143"/>
      <point x="290" y="169" type="curve" smooth="yes"/>
      <point x="290" y="572" type="line"/>
      <point x="68" y="572" type="line"/>
      <point x="68" y="-250" type="line"/>
      <point x="283" y="-250" type="line"/>
      <point x="283" y="-94"/>
      <point x="166" y="-3"/>
      <point x="156" y="223" type="curve"/>
    </contour>
  </outline>
</glyph>
<glyph name="thai:baht" format="2">
  <advance width="602"/>
  <unicode hex="0E3F"/>
  <outline>
    <contour>
      <point x="330" y="405" type="curve"/>
      <point x="226" y="405" type="line"/>
      <point x="226" y="627" type="line"/>
      <point x="305" y="627" type="line" smooth="yes"/>
      <point x="389" y="627"/>
      <point x="411" y="589"/>
      <point x="411" y="525" type="curve" smooth="yes"/>
      <point x="411" y="454"/>
      <point x="402" y="405"/>
    </contour>
    <contour>
      <point x="324" y="339" type="line"/>
      <point x="411" y="339"/>
      <point x="427" y="282"/>
      <point x="427" y="213" type="curve" smooth="yes"/>
      <point x="427" y="133"/>
      <point x="400" y="82"/>
      <point x="302" y="82" type="curve" smooth="yes"/>
      <point x="226" y="82" type="line"/>
      <point x="226" y="339" type="line"/>
    </contour>
    <contour>
      <point x="253" y="790" type="line"/>
      <point x="253" y="676" type="line"/>
      <point x="295" y="660" type="line"/>
      <point x="295" y="46" type="line"/>
      <point x="253" y="36" type="line"/>
      <point x="253" y="-110" type="line"/>
      <point x="371" y="-110" type="line"/>
      <point x="371" y="38" type="line"/>
      <point x="335" y="50" type="line"/>
      <point x="335" y="662" type="line"/>
      <point x="371" y="673" type="line"/>
      <point x="371" y="790" type="line"/>
    </contour>
    <contour>
      <point x="382" y="375" type="line"/>
      <point x="515" y="384"/>
      <point x="579" y="436"/>
      <point x="579" y="547" type="curve" smooth="yes"/>
      <point x="579" y="643"/>
      <point x="498" y="700"/>
      <point x="334" y="700" type="curve" smooth="yes"/>
      <point x="8" y="700" type="line"/>
      <point x="8" y="605" type="line"/>
      <point x="15" y="605" type="line" smooth="yes"/>
      <point x="42" y="605"/>
      <point x="64" y="598"/>
      <point x="64" y="569" type="curve" smooth="yes"/>
      <point x="64" y="141" type="line" smooth="yes"/>
      <point x="64" y="112"/>
      <point x="42" y="105"/>
      <point x="15" y="105" type="curve" smooth="yes"/>
      <point x="8" y="105" type="line"/>
      <point x="8" y="10" type="line"/>
      <point x="330" y="10" type="line" smooth="yes"/>
      <point x="507" y="10"/>
      <point x="597" y="79"/>
      <point x="597" y="211" type="curve" smooth="yes"/>
      <point x="597" y="311"/>
      <point x="526" y="362"/>
      <point x="383" y="371" type="curve"/>
      <point x="406" y="362" type="line"/>
      <point x="406" y="385" type="line"/>
    </contour>
  </outline>
</glyph>
<glyph name="bullet" format="2">
  <advance width="509"/>
  <unicode hex="2022"/>
  <outline>
    <contour>
      <point x="70" y="348" type="curve" smooth="yes"/>
      <point x="70" y="249"/>
      <point x="147" y="182"/>
      <point x="255" y="182" type="curve" smooth="yes"/>
      <point x="362" y="182"/>
      <point x="440" y="249"/>
      <point x="440" y="348" type="curve" smooth="yes"/>
      <point x="440" y="447"/>
      <point x="362" y="514"/>
      <point x="255" y="514" type="curve" smooth="yes"/>
      <point x="147" y="514"/>
      <point x="70" y="447"/>
    </contour>
  </outline>
</glyph>
<glyph name="naira" format="2">
  <advance width="602"/>
  <unicode hex="20A6"/>
  <outline>
    <contour>
      <point x="27" y="0" type="line"/>
      <point x="223" y="0" type="line"/>
      <point x="223" y="95" type="line"/>
      <point x="213" y="95" type="line" smooth="yes"/>
      <point x="186" y="95"/>
      <point x="169" y="101"/>
      <point x="169" y="108" type="curve" smooth="yes"/>
      <point x="169" y="696" type="line"/>
      <point x="157" y="698" type="line"/>
      <point x="318" y="0" type="line"/>
      <point x="510" y="0" type="line"/>
      <point x="510" y="574" type="line" smooth="yes"/>
      <point x="510" y="603"/>
      <point x="531" y="615"/>
      <point x="567" y="615" type="curve" smooth="yes"/>
      <point x="575" y="615" type="line"/>
      <point x="575" y="710" type="line"/>
      <point x="383" y="710" type="line"/>
      <point x="383" y="615" type="line"/>
      <point x="391" y="615" type="line" smooth="yes"/>
      <point x="421" y="615"/>
      <point x="433" y="609"/>
      <point x="433" y="602" type="curve" smooth="yes"/>
      <point x="433" y="35" type="line"/>
      <point x="449" y="18" type="line"/>
      <point x="300" y="710" type="line"/>
      <point x="27" y="710" type="line"/>
      <point x="27" y="615" type="line"/>
      <point x="35" y="615" type="line" smooth="yes"/>
      <point x="71" y="615"/>
      <point x="92" y="608"/>
      <point x="92" y="579" type="curve" smooth="yes"/>
      <point x="92" y="136" type="line" smooth="yes"/>
      <point x="92" y="107"/>
      <point x="71" y="95"/>
      <point x="35" y="95" type="curve" smooth="yes"/>
      <point x="27" y="95" type="line"/>
    </contour>
    <contour>
      <point x="147" y="523" type="line"/>
      <point x="12" y="523" type="line"/>
      <point x="12" y="419" type="line"/>
      <point x="145" y="419" type="line"/>
    </contour>
    <contour>
      <point x="590" y="419" type="line"/>
      <point x="590" y="523" type="line"/>
      <point x="313" y="523" type="line"/>
      <point x="312" y="510" type="line"/>
      <point x="446" y="432" type="line"/>
      <point x="460" y="419" type="line"/>
    </contour>
    <contour>
      <point x="12" y="183" type="line"/>
      <point x="307" y="183" type="line"/>
      <point x="307" y="197" type="line"/>
      <point x="151" y="274" type="line"/>
      <point x="151" y="287" type="line"/>
      <point x="12" y="287" type="line"/>
    </contour>
    <contour>
      <point x="453" y="183" type="line"/>
      <point x="590" y="183" type="line"/>
      <point x="590" y="287" type="line"/>
      <point x="455" y="287" type="line"/>
    </contour>
  </outline>
</glyph>
<glyph name="product" format="2">
  <advance width="883"/>
  <unicode hex="220F"/>
  <outline>
    <contour>
      <point x="53" y="710" type="line"/>
      <point x="53" y="610" type="line"/>
      <point x="65" y="610" type="line" smooth="yes"/>
      <point x="98" y="610"/>
      <point x="123" y="603"/>
      <point x="123" y="574" type="curve" smooth="yes"/>
      <point x="123" y="-98" type="line" smooth="yes"/>
      <point x="123" y="-127"/>
      <point x="98" y="-134"/>
      <point x="65" y="-134" type="curve" smooth="yes"/>
      <point x="53" y="-134" type="line"/>
      <point x="53" y="-234" type="line"/>
      <point x="388" y="-234" type="line"/>
      <point x="388" y="-134" type="line"/>
      <point x="379" y="-134" type="line" smooth="yes"/>
      <point x="356" y="-134"/>
      <point x="331" y="-131"/>
      <point x="331" y="-124" type="curve" smooth="yes"/>
      <point x="331" y="607" type="line" smooth="yes"/>
      <point x="331" y="614"/>
      <point x="361" y="617"/>
      <point x="384" y="617" type="curve" smooth="yes"/>
      <point x="499" y="617" type="line" smooth="yes"/>
      <point x="522" y="617"/>
      <point x="552" y="614"/>
      <point x="552" y="607" type="curve" smooth="yes"/>
      <point x="552" y="-124" type="line" smooth="yes"/>
      <point x="552" y="-131"/>
      <point x="526" y="-134"/>
      <point x="504" y="-134" type="curve" smooth="yes"/>
      <point x="495" y="-134" type="line"/>
      <point x="495" y="-234" type="line"/>
      <point x="829" y="-234" type="line"/>
      <point x="829" y="-134" type="line"/>
      <point x="817" y="-134" type="line" smooth="yes"/>
      <point x="785" y="-134"/>
      <point x="760" y="-127"/>
      <point x="760" y="-98" type="curve"/>
      <point x="760" y="574" type="line" smooth="yes"/>
      <point x="760" y="603"/>
      <point x="785" y="610"/>
      <point x="817" y="610" type="curve" smooth="yes"/>
      <point x="829" y="610" type="line"/>
      <point x="829" y="710" type="line"/>
    </contour>
  </outline>
</glyph>
<glyph name="integral" format="2">
  <advance width="570"/>
  <unicode hex="222B"/>
  <outline>
    <contour>
      <point x="318" y="-84" type="curve" smooth="yes"/>
      <point x="333" y="570" type="line" smooth="yes"/>
      <point x="334" y="627"/>
      <point x="351" y="646"/>
      <point x="403" y="646" type="curve" smooth="yes"/>
      <point x="431" y="646"/>
      <point x="449" y="640"/>
      <point x="458" y="631" type="curve"/>
      <point x="476" y="627"/>
      <point x="473" y="648"/>
      <point x="437" y="657" type="curve"/>
      <point x="437" y="538" type="line"/>
      <point x="563" y="538" type="line"/>
      <point x="563" y="712" type="line"/>
      <point x="538" y="722"/>
      <point x="486" y="737"/>
      <point x="403" y="737" type="curve" smooth="yes"/>
      <point x="247" y="737"/>
      <point x="163" y="691"/>
      <point x="161" y="570" type="curve" smooth="yes"/>
      <point x="146" y="-84" type="line" smooth="yes"/>
      <point x="145" y="-153"/>
      <point x="124" y="-161"/>
      <point x="88" y="-161" type="curve" smooth="yes"/>
      <point x="63" y="-161"/>
      <point x="45" y="-156"/>
      <point x="32" y="-147" type="curve"/>
      <point x="14" y="-143"/>
      <point x="27" y="-195"/>
      <point x="59" y="-204" type="curve"/>
      <point x="59" y="-54" type="line"/>
      <point x="-69" y="-54" type="line"/>
      <point x="-69" y="-225" type="line"/>
      <point x="-44" y="-235"/>
      <point x="-5" y="-251"/>
      <point x="88" y="-251" type="curve" smooth="yes"/>
      <point x="232" y="-251"/>
      <point x="316" y="-209"/>
    </contour>
  </outline>
</glyph>
<glyph name="approxequal" format="2">
  <advance width="602"/>
  <unicode hex="2248"/>
  <outline>
    <contour>
      <point x="389" y="355" type="curve" smooth="yes"/>
      <point x="503" y="355"/>
      <point x="548" y="456"/>
      <point x="565" y="585" type="curve"/>
      <point x="463" y="605" type="line"/>
      <point x="449" y="534"/>
      <point x="440" y="482"/>
      <point x="401" y="482" type="curve" smooth="yes"/>
      <point x="350" y="482"/>
      <point x="334" y="601"/>
      <point x="207" y="601" type="curve" smooth="yes"/>
      <point x="92" y="601"/>
      <point x="51" y="503"/>
      <point x="37" y="372" type="curve"/>
      <point x="140" y="352" type="line"/>
      <point x="150" y="426"/>
      <point x="162" y="475"/>
      <point x="199" y="475" type="curve" smooth="yes"/>
      <point x="250" y="475"/>
      <point x="263" y="355"/>
    </contour>
    <contour>
      <point x="389" y="81" type="curve" smooth="yes"/>
      <point x="503" y="81"/>
      <point x="548" y="183"/>
      <point x="565" y="312" type="curve"/>
      <point x="463" y="332" type="line"/>
      <point x="449" y="261"/>
      <point x="440" y="209"/>
      <point x="401" y="209" type="curve" smooth="yes"/>
      <point x="350" y="209"/>
      <point x="334" y="328"/>
      <point x="207" y="328" type="curve" smooth="yes"/>
      <point x="92" y="328"/>
      <point x="51" y="230"/>
      <point x="37" y="99" type="curve"/>
      <point x="140" y="79" type="line"/>
      <point x="150" y="153"/>
      <point x="162" y="202"/>
      <point x="199" y="202" type="curve" smooth="yes"/>
      <point x="250" y="202"/>
      <point x="263" y="81"/>
    </contour>
  </outline>
</glyph>
<glyph name="notequal" format="2">
  <advance width="602"/>
  <unicode hex="2260"/>
  <outline>
    <contour>
      <point x="437" y="639" type="line"/>
      <point x="52" y="-1" type="line"/>
      <point x="165" y="-1" type="line"/>
      <point x="550" y="639" type="line"/>
    </contour>
    <component base="equal"/>
  </outline>
</glyph>
<glyph name="uni27F7" format="2">
  <advance width="1440"/>
  <unicode hex="27F7"/>
  <outline>
    <contour>
      <point x="1095" y="305" type="line"/>
      <point x="941" y="152" type="line"/>
      <point x="971" y="109" type="line"/>
      <point x="1370" y="333" type="line"/>
      <point x="1370" y="373" type="line"/>
      <point x="971" y="597" type="line"/>
      <point x="941" y="554" type="line"/>
      <point x="1095" y="401" type="line"/>
      <point x="344" y="401" type="line"/>
      <point x="499" y="554" type="line"/>
      <point x="469" y="597" type="line"/>
      <point x="70" y="373" type="line"/>
      <point x="70" y="333" type="line"/>
      <point x="469" y="109" type="line"/>
      <point x="499" y="152" type="line"/>
      <point x="344" y="305" type="line"/>
    </contour>
  </outline>
</glyph>
<glyph name="E.alt" format="2">
  <advance width="781"/>
  <outline>
    <contour>
      <point x="725" y="217" type="line"/>
      <point x="614" y="217" type="line"/>
      <point x="596" y="141" type="line" smooth="yes"/>
      <point x="587" y="105"/>
      <point x="559" y="98"/>
      <point x="475" y="98" type="curve" smooth="yes"/>
      <point x="345" y="98" type="line"/>
      <point x="345" y="612" type="line"/>
      <point x="483" y="612" type="line" smooth="yes"/>
      <point x="546" y="612"/>
      <point x="580" y="605"/>
      <point x="587" y="569" type="curve" smooth="yes"/>
      <point x="598" y="518" type="line"/>
      <point x="708" y="518" type="line"/>
      <point x="708" y="710" type="line"/>
      <point x="42" y="710" type="line"/>
      <point x="42" y="610" type="line"/>
      <point x="54" y="610" type="line" smooth="yes"/>
      <point x="86" y="610"/>
      <point x="111" y="603"/>
      <point x="111" y="574" type="curve" smooth="yes"/>
      <point x="111" y="137" type="line" smooth="yes"/>
      <point x="111" y="108"/>
      <point x="86" y="101"/>
      <point x="54" y="101" type="curve" smooth="yes"/>
      <point x="42" y="101" type="line"/>
      <point x="42" y="0" type="line"/>
      <point x="725" y="0" type="line"/>
    </contour>
    <contour>
      <point x="256" y="416" type="line"/>
      <point x="256" y="323" type="line"/>
      <point x="432" y="323" type="line" smooth="yes"/>
      <point x="464" y="323"/>
      <point x="474" y="298"/>
      <point x="474" y="275" type="curve" smooth="yes"/>
      <point x="474" y="260" type="line"/>
      <point x="570" y="260" type="line"/>
      <point x="570" y="478" type="line"/>
      <point x="474" y="478" type="line"/>
      <point x="474" y="465" type="line" smooth="yes"/>
      <point x="474" y="441"/>
      <point x="464" y="416"/>
      <point x="432" y="416" type="curve" smooth="yes"/>
    </contour>
  </outline>
</glyph>
<glyph name="Euro.proportional" format="2">
  <advance width="797"/>
  <outline>
    <contour>
      <point x="29" y="301" type="line"/>
      <point x="29" y="215" type="line"/>
      <point x="564" y="215" type="line"/>
      <point x="564" y="301" type="line"/>
    </contour>
    <contour>
      <point x="29" y="471" type="line"/>
      <point x="29" y="385" type="line"/>
      <point x="596" y="385" type="line"/>
      <point x="596" y="471" type="line"/>
    </contour>
    <contour>
      <point x="364" y="355" type="curve" smooth="yes"/>
      <point x="364" y="583"/>
      <point x="397" y="638"/>
      <point x="517" y="638" type="curve" smooth="yes"/>
      <point x="575" y="638"/>
      <point x="613" y="620"/>
      <point x="637" y="605" type="curve"/>
      <point x="645" y="609"/>
      <point x="612" y="672"/>
      <point x="583" y="671" type="curve"/>
      <point x="583" y="540" type="line"/>
      <point x="750" y="540" type="line"/>
      <point x="750" y="694" type="line"/>
      <point x="728" y="704"/>
      <point x="641" y="735"/>
      <point x="517" y="735" type="curve" smooth="yes"/>
      <point x="235" y="735"/>
      <point x="128" y="611"/>
      <point x="128" y="355" type="curve" smooth="yes"/>
      <point x="128" y="86"/>
      <point x="248" y="-25"/>
      <point x="484" y="-25" type="curve" smooth="yes"/>
      <point x="662" y="-25"/>
      <point x="734" y="51"/>
      <point x="779" y="156" type="curve"/>
      <point x="678" y="203" type="line"/>
      <point x="648" y="149"/>
      <point x="612" y="85"/>
      <point x="514" y="85" type="curve" smooth="yes"/>
      <point x="407" y="85"/>
      <point x="364" y="119"/>
    </contour>
  </outline>
</glyph>
<glyph name="acute.uc" format="2">
  <advance width="538"/>
  <anchor x="290" y="727" name="_top"/>
  <outline>
    <contour>
      <point x="266" y="928" type="curve" smooth="yes"/>
      <point x="173" y="822" type="line"/>
      <point x="173" y="778" type="line"/>
      <point x="229" y="778" type="line"/>
      <point x="371" y="807" type="line" smooth="yes"/>
      <point x="453" y="827"/>
      <point x="497" y="859"/>
      <point x="497" y="922" type="curve" smooth="yes"/>
      <point x="497" y="977"/>
      <point x="459" y="1016"/>
      <point x="398" y="1016" type="curve" smooth="yes"/>
      <point x="336" y="1016"/>
      <point x="304" y="976"/>
    </contour>
  </outline>
</glyph>
<glyph name="breve_tilde" format="2">
  <advance width="538"/>
  <anchor x="269" y="524" name="_top"/>
  <outline>
    <contour>
      <point x="362" y="885" type="curve" smooth="yes"/>
      <point x="463" y="885"/>
      <point x="498" y="947"/>
      <point x="519" y="1102" type="curve"/>
      <point x="428" y="1114" type="line"/>
      <point x="414" y="1050"/>
      <point x="410" y="1025"/>
      <point x="375" y="1025" type="curve" smooth="yes"/>
      <point x="320" y="1025"/>
      <point x="303" y="1109"/>
      <point x="195" y="1109" type="curve" smooth="yes"/>
      <point x="86" y="1109"/>
      <point x="57" y="1037"/>
      <point x="38" y="896" type="curve"/>
      <point x="130" y="884" type="line"/>
      <point x="142" y="947"/>
      <point x="144" y="971"/>
      <point x="180" y="971" type="curve" smooth="yes"/>
      <point x="230" y="971"/>
      <point x="245" y="885"/>
    </contour>
    <contour>
      <point x="274" y="621" type="curve" smooth="yes"/>
      <point x="129" y="621"/>
      <point x="58" y="692"/>
      <point x="59" y="832" type="curve"/>
      <point x="169" y="832" type="line"/>
      <point x="172" y="784"/>
      <point x="190" y="763"/>
      <point x="278" y="763" type="curve" smooth="yes"/>
      <point x="366" y="763"/>
      <point x="382" y="784"/>
      <point x="386" y="832" type="curve"/>
      <point x="490" y="832" type="line"/>
      <point x="491" y="692"/>
      <point x="420" y="621"/>
    </contour>
  </outline>
</glyph>
<glyph name="brokenbar.uc" format="2">
  <advance width="389"/>
  <outline>
    <contour>
      <point x="258" y="445" type="line"/>
      <point x="258" y="760" type="line"/>
      <point x="131" y="760" type="line"/>
      <point x="131" y="445" type="line"/>
    </contour>
    <contour>
      <point x="131" y="260" type="line"/>
      <point x="131" y="-60" type="line"/>
      <point x="258" y="-60" type="line"/>
      <point x="258" y="260" type="line"/>
    </contour>
  </outline>
</glyph>
<glyph name="caron.alt" format="2">
  <advance width="538"/>
  <anchor x="171" y="574" name="_right"/>
  <outline>
    <contour>
      <point x="327" y="543" type="line"/>
      <point x="183" y="543" type="line"/>
      <point x="183" y="589" type="line"/>
      <point x="201" y="710" type="line"/>
      <point x="400" y="710" type="line"/>
    </contour>
  </outline>
</glyph>
<glyph name="cent.proportional" format="2">
  <advance width="749"/>
  <outline>
    <contour>
      <point x="417" y="81" type="curve" smooth="yes"/>
      <point x="293" y="81"/>
      <point x="256" y="109"/>
      <point x="256" y="286" type="curve" smooth="yes"/>
      <point x="256" y="455"/>
      <point x="290" y="494"/>
      <point x="417" y="494" type="curve" smooth="yes"/>
      <point x="517" y="494"/>
      <point x="559" y="482"/>
      <point x="593" y="461" type="curve"/>
      <point x="588" y="473"/>
      <point x="593" y="534"/>
      <point x="553" y="530" type="curve"/>
      <point x="553" y="343" type="line"/>
      <point x="702" y="343" type="line"/>
      <point x="702" y="525" type="line"/>
      <point x="674" y="544"/>
      <point x="570" y="583"/>
      <point x="405" y="583" type="curve" smooth="yes"/>
      <point x="184" y="583"/>
      <point x="50" y="487"/>
      <point x="50" y="286" type="curve" smooth="yes"/>
      <point x="50" y="81"/>
      <point x="197" y="-12"/>
      <point x="405" y="-12" type="curve" smooth="yes"/>
      <point x="558" y="-12"/>
      <point x="657" y="37"/>
      <point x="703" y="157" type="curve"/>
      <point x="611" y="192" type="line"/>
      <point x="580" y="130"/>
      <point x="538" y="81"/>
    </contour>
    <contour>
      <point x="359" y="703" type="line"/>
      <point x="359" y="546" type="line"/>
      <point x="385" y="534" type="line"/>
      <point x="385" y="28" type="line"/>
      <point x="359" y="11" type="line"/>
      <point x="359" y="-166" type="line"/>
      <point x="475" y="-166" type="line"/>
      <point x="475" y="20" type="line"/>
      <point x="449" y="33" type="line"/>
      <point x="449" y="536" type="line"/>
      <point x="475" y="555" type="line"/>
      <point x="475" y="703" type="line"/>
    </contour>
  </outline>
</glyph>
<glyph name="circumflex.uc" format="2">
  <advance width="538"/>
  <anchor x="264" y="694" name="_top"/>
  <outline>
    <contour>
      <point x="344" y="998" type="line"/>
      <point x="504" y="824" type="line"/>
      <point x="504" y="771" type="line"/>
      <point x="424" y="771" type="line"/>
      <point x="231" y="859" type="line"/>
      <point x="295" y="858" type="line"/>
      <point x="109" y="771" type="line"/>
      <point x="33" y="771" type="line"/>
      <point x="33" y="824" type="line"/>
      <point x="193" y="998" type="line"/>
    </contour>
  </outline>
</glyph>
<glyph name="circumflex_grave.uc" format="2">
  <advance width="545"/>
  <anchor x="269" y="696" name="_top"/>
  <outline>
    <contour>
      <point x="610" y="1089" type="line" smooth="yes"/>
      <point x="583" y="1142"/>
      <point x="550" y="1189"/>
      <point x="487" y="1189" type="curve" smooth="yes"/>
      <point x="428" y="1189"/>
      <point x="388" y="1152"/>
      <point x="388" y="1097" type="curve" smooth="yes"/>
      <point x="388" y="1038"/>
      <point x="425" y="1008"/>
      <point x="506" y="969" type="curve" smooth="yes"/>
      <point x="625" y="920" type="line"/>
      <point x="682" y="920" type="line"/>
      <point x="682" y="964" type="line"/>
    </contour>
    <component base="circumflex.uc"/>
  </outline>
</glyph>
<glyph name="dieresis.uc" format="2">
  <advance width="538"/>
  <anchor x="269" y="694" name="_top"/>
  <outline>
    <contour>
      <point x="106" y="797" type="curve" smooth="yes"/>
      <point x="184" y="797"/>
      <point x="231" y="831"/>
      <point x="231" y="903" type="curve" smooth="yes"/>
      <point x="231" y="975"/>
      <point x="184" y="1010"/>
      <point x="106" y="1010" type="curve" smooth="yes"/>
      <point x="27" y="1010"/>
      <point x="-19" y="975"/>
      <point x="-19" y="903" type="curve" smooth="yes"/>
      <point x="-19" y="830"/>
      <point x="27" y="797"/>
    </contour>
    <contour>
      <point x="432" y="797" type="curve" smooth="yes"/>
      <point x="510" y="797"/>
      <point x="556" y="831"/>
      <point x="556" y="903" type="curve" smooth="yes"/>
      <point x="556" y="975"/>
      <point x="510" y="1010"/>
      <point x="432" y="1010" type="curve" smooth="yes"/>
      <point x="353" y="1010"/>
      <point x="307" y="975"/>
      <point x="307" y="903" type="curve" smooth="yes"/>
      <point x="307" y="830"/>
      <point x="353" y="797"/>
    </contour>
  </outline>
</glyph>
<glyph name="f_f.alt" format="2">
  <advance width="1016"/>
  <outline>
    <contour>
      <point x="29" y="572" type="line"/>
      <point x="29" y="473" type="line"/>
      <point x="519" y="473" type="line"/>
      <point x="519" y="572" type="line"/>
    </contour>
    <contour>
      <point x="500" y="572" type="line"/>
      <point x="500" y="473" type="line"/>
      <point x="985" y="473" type="line"/>
      <point x="985" y="572" type="line"/>
    </contour>
    <contour>
      <point x="601" y="92" type="line" smooth="yes"/>
      <point x="601" y="86"/>
      <point x="567" y="84"/>
      <point x="534" y="84" type="curve" smooth="yes"/>
      <point x="525" y="84" type="line"/>
      <point x="525" y="0" type="line"/>
      <point x="924" y="0" type="line"/>
      <point x="924" y="84" type="line"/>
      <point x="907" y="84" type="line" smooth="yes"/>
      <point x="874" y="84"/>
      <point x="820" y="86"/>
      <point x="820" y="92" type="curve" smooth="yes"/>
      <point x="820" y="609" type="line" smooth="yes"/>
      <point x="820" y="682"/>
      <point x="840" y="706"/>
      <point x="909" y="706" type="curve" smooth="yes"/>
      <point x="951" y="706"/>
      <point x="970" y="699"/>
      <point x="989" y="689" type="curve"/>
      <point x="978" y="718"/>
      <point x="988" y="729"/>
      <point x="948" y="729" type="curve"/>
      <point x="948" y="634" type="line"/>
      <point x="1099" y="634" type="line"/>
      <point x="1099" y="764" type="line"/>
      <point x="1080" y="769"/>
      <point x="986" y="785"/>
      <point x="898" y="785" type="curve" smooth="yes"/>
      <point x="724" y="785"/>
      <point x="601" y="723"/>
      <point x="601" y="593" type="curve"/>
    </contour>
    <contour>
      <point x="37" y="0" type="line"/>
      <point x="424" y="0" type="line"/>
      <point x="424" y="84" type="line"/>
      <point x="414" y="84" type="line" smooth="yes"/>
      <point x="382" y="84"/>
      <point x="347" y="86"/>
      <point x="347" y="92" type="curve" smooth="yes"/>
      <point x="347" y="583" type="line" smooth="yes"/>
      <point x="347" y="656"/>
      <point x="367" y="680"/>
      <point x="475" y="680" type="curve" smooth="yes"/>
      <point x="578" y="680"/>
      <point x="643" y="661"/>
      <point x="672" y="643" type="curve"/>
      <point x="669" y="680"/>
      <point x="661" y="707"/>
      <point x="601" y="707" type="curve"/>
      <point x="601" y="611" type="line"/>
      <point x="761" y="611" type="line"/>
      <point x="761" y="705" type="line"/>
      <point x="726" y="726"/>
      <point x="623" y="759"/>
      <point x="463" y="759" type="curve" smooth="yes"/>
      <point x="239" y="759"/>
      <point x="127" y="713"/>
      <point x="127" y="567" type="curve" smooth="yes"/>
      <point x="127" y="154" type="line" smooth="yes"/>
      <point x="127" y="103"/>
      <point x="106" y="84"/>
      <point x="64" y="84" type="curve" smooth="yes"/>
      <point x="37" y="84" type="line"/>
    </contour>
  </outline>
</glyph>
<glyph name="f_f_h" format="2">
  <advance width="1786"/>
  <outline>
    <contour>
      <point x="29" y="572" type="line"/>
      <point x="29" y="473" type="line"/>
      <point x="538" y="473" type="line"/>
      <point x="538" y="572" type="line"/>
    </contour>
    <contour>
      <point x="1476" y="92" type="line" smooth="yes"/>
      <point x="1476" y="86"/>
      <point x="1452" y="84"/>
      <point x="1434" y="84" type="curve" smooth="yes"/>
      <point x="1430" y="84" type="line"/>
      <point x="1430" y="0" type="line"/>
      <point x="1756" y="0" type="line"/>
      <point x="1756" y="84" type="line"/>
      <point x="1752" y="84" type="line" smooth="yes"/>
      <point x="1715" y="84"/>
      <point x="1698" y="99"/>
      <point x="1698" y="149" type="curve" smooth="yes"/>
      <point x="1698" y="419" type="line" smooth="yes"/>
      <point x="1698" y="525"/>
      <point x="1640" y="585"/>
      <point x="1526" y="585" type="curve" smooth="yes"/>
      <point x="1421" y="585"/>
      <point x="1320" y="505"/>
      <point x="1269" y="411" type="curve"/>
      <point x="1262" y="331" type="line"/>
      <point x="1324" y="407"/>
      <point x="1374" y="449"/>
      <point x="1422" y="449" type="curve" smooth="yes"/>
      <point x="1463" y="449"/>
      <point x="1476" y="431"/>
      <point x="1476" y="402" type="curve" smooth="yes"/>
    </contour>
    <contour>
      <point x="503" y="572" type="line"/>
      <point x="503" y="473" type="line"/>
      <point x="956" y="473" type="line"/>
      <point x="956" y="572" type="line"/>
    </contour>
    <contour>
      <point x="1000" y="0" type="line"/>
      <point x="1343" y="0" type="line"/>
      <point x="1343" y="84" type="line"/>
      <point x="1338" y="84" type="line" smooth="yes"/>
      <point x="1322" y="84"/>
      <point x="1296" y="86"/>
      <point x="1296" y="92" type="curve" smooth="yes"/>
      <point x="1296" y="780" type="line"/>
      <point x="922" y="780" type="line"/>
      <point x="1075" y="677" type="line"/>
      <point x="1075" y="92" type="line" smooth="yes"/>
      <point x="1075" y="86"/>
      <point x="1042" y="84"/>
      <point x="1009" y="84" type="curve" smooth="yes"/>
      <point x="1000" y="84" type="line"/>
    </contour>
    <contour>
      <point x="127" y="154" type="line" smooth="yes"/>
      <point x="127" y="103"/>
      <point x="106" y="84"/>
      <point x="64" y="84" type="curve" smooth="yes"/>
      <point x="37" y="84" type="line"/>
      <point x="37" y="0" type="line"/>
      <point x="424" y="0" type="line"/>
      <point x="424" y="84" type="line"/>
      <point x="413" y="84" type="line" smooth="yes"/>
      <point x="381" y="84"/>
      <point x="347" y="86"/>
      <point x="347" y="92" type="curve" smooth="yes"/>
      <point x="347" y="594" type="line" smooth="yes"/>
      <point x="347" y="651"/>
      <point x="363" y="672"/>
      <point x="426" y="672" type="curve" smooth="yes"/>
      <point x="461" y="672"/>
      <point x="487" y="665"/>
      <point x="496" y="664" type="curve"/>
      <point x="496" y="758" type="line"/>
      <point x="484" y="761"/>
      <point x="434" y="770"/>
      <point x="371" y="770" type="curve" smooth="yes"/>
      <point x="221" y="770"/>
      <point x="127" y="724"/>
      <point x="127" y="577" type="curve" smooth="yes"/>
    </contour>
    <contour>
      <point x="601" y="92" type="line" smooth="yes"/>
      <point x="601" y="86"/>
      <point x="568" y="84"/>
      <point x="535" y="84" type="curve" smooth="yes"/>
      <point x="525" y="84" type="line"/>
      <point x="525" y="0" type="line"/>
      <point x="897" y="0" type="line"/>
      <point x="897" y="84" type="line"/>
      <point x="887" y="84" type="line" smooth="yes"/>
      <point x="854" y="84"/>
      <point x="820" y="86"/>
      <point x="820" y="92" type="curve" smooth="yes"/>
      <point x="820" y="609" type="line" smooth="yes"/>
      <point x="820" y="666"/>
      <point x="841" y="687"/>
      <point x="940" y="687" type="curve" smooth="yes"/>
      <point x="1026" y="687"/>
      <point x="1102" y="666"/>
      <point x="1133" y="652" type="curve"/>
      <point x="1133" y="704" type="line"/>
      <point x="1094" y="742"/>
      <point x="1011" y="785"/>
      <point x="879" y="785" type="curve" smooth="yes"/>
      <point x="704" y="785"/>
      <point x="601" y="739"/>
      <point x="601" y="593" type="curve"/>
    </contour>
  </outline>
</glyph>
<glyph name="five.linprop" format="2">
  <advance width="645"/>
  <outline>
    <contour>
      <point x="285" y="-11" type="curve" smooth="yes"/>
      <point x="126" y="-11"/>
      <point x="51" y="33"/>
      <point x="14" y="145" type="curve"/>
      <point x="121" y="183" type="line"/>
      <point x="144" y="129"/>
      <point x="178" y="94"/>
      <point x="274" y="94" type="curve" smooth="yes"/>
      <point x="359" y="94"/>
      <point x="396" y="128"/>
      <point x="396" y="246" type="curve" smooth="yes"/>
      <point x="396" y="334"/>
      <point x="363" y="365"/>
      <point x="288" y="365" type="curve" smooth="yes"/>
      <point x="219" y="365"/>
      <point x="192" y="337"/>
      <point x="168" y="291" type="curve"/>
      <point x="78" y="291" type="line"/>
      <point x="78" y="710" type="line"/>
      <point x="548" y="710" type="line"/>
      <point x="529" y="547" type="line"/>
      <point x="158" y="547" type="line"/>
      <point x="180" y="690" type="line"/>
      <point x="180" y="375" type="line"/>
      <point x="184" y="352"/>
      <point x="166" y="347"/>
      <point x="158" y="353" type="curve"/>
      <point x="185" y="422"/>
      <point x="233" y="469"/>
      <point x="358" y="469" type="curve" smooth="yes"/>
      <point x="514" y="469"/>
      <point x="606" y="395"/>
      <point x="606" y="246" type="curve" smooth="yes"/>
      <point x="606" y="71"/>
      <point x="496" y="-11"/>
    </contour>
  </outline>
</glyph>
<glyph name="five.lintab" format="2">
  <advance width="602"/>
  <outline>
    <contour>
      <point x="273" y="-11" type="curve" smooth="yes"/>
      <point x="116" y="-11"/>
      <point x="49" y="33"/>
      <point x="14" y="145" type="curve"/>
      <point x="119" y="183" type="line"/>
      <point x="139" y="129"/>
      <point x="167" y="94"/>
      <point x="251" y="94" type="curve" smooth="yes"/>
      <point x="324" y="94"/>
      <point x="357" y="137"/>
      <point x="357" y="245" type="curve" smooth="yes"/>
      <point x="357" y="336"/>
      <point x="329" y="365"/>
      <point x="264" y="365" type="curve" smooth="yes"/>
      <point x="208" y="365"/>
      <point x="189" y="337"/>
      <point x="169" y="291" type="curve"/>
      <point x="79" y="291" type="line"/>
      <point x="79" y="710" type="line"/>
      <point x="511" y="710" type="line"/>
      <point x="492" y="553" type="line"/>
      <point x="159" y="553" type="line"/>
      <point x="181" y="690" type="line"/>
      <point x="181" y="376" type="line"/>
      <point x="176" y="362"/>
      <point x="157" y="358"/>
      <point x="159" y="355" type="curve"/>
      <point x="184" y="422"/>
      <point x="224" y="469"/>
      <point x="341" y="469" type="curve" smooth="yes"/>
      <point x="480" y="469"/>
      <point x="563" y="397"/>
      <point x="563" y="245" type="curve" smooth="yes"/>
      <point x="563" y="75"/>
      <point x="464" y="-11"/>
    </contour>
  </outline>
</glyph>
<glyph name="florin.proportional" format="2">
  <advance width="611"/>
  <outline>
    <contour>
      <point x="113" y="565" type="line"/>
      <point x="96" y="481" type="line"/>
      <point x="552" y="481" type="line"/>
      <point x="569" y="565" type="line"/>
    </contour>
    <contour>
      <point x="229" y="647" type="curve" smooth="yes"/>
      <point x="102" y="-76" type="line" smooth="yes"/>
      <point x="89" y="-151"/>
      <point x="64" y="-158"/>
      <point x="3" y="-158" type="curve" smooth="yes"/>
      <point x="-28" y="-158"/>
      <point x="-52" y="-153"/>
      <point x="-76" y="-146" type="curve"/>
      <point x="-90" y="-236" type="line"/>
      <point x="-56" y="-244"/>
      <point x="-20" y="-250"/>
      <point x="44" y="-250" type="curve" smooth="yes"/>
      <point x="197" y="-250"/>
      <point x="275" y="-204"/>
      <point x="296" y="-81" type="curve" smooth="yes"/>
      <point x="420" y="627" type="line" smooth="yes"/>
      <point x="430" y="677"/>
      <point x="446" y="698"/>
      <point x="505" y="698" type="curve" smooth="yes"/>
      <point x="543" y="698"/>
      <point x="580" y="690"/>
      <point x="600" y="686" type="curve"/>
      <point x="610" y="775" type="line"/>
      <point x="585" y="782"/>
      <point x="531" y="790"/>
      <point x="470" y="790" type="curve" smooth="yes"/>
      <point x="317" y="790"/>
      <point x="248" y="751"/>
    </contour>
  </outline>
</glyph>
<glyph name="four.midprop" format="2">
  <advance width="697"/>
  <outline>
    <contour>
      <point x="34" y="110" type="line"/>
      <point x="679" y="110" type="line"/>
      <point x="679" y="263" type="line"/>
      <point x="104" y="263" type="line"/>
      <point x="90" y="195" type="line"/>
      <point x="390" y="620" type="line"/>
      <point x="407" y="667" type="line"/>
      <point x="314" y="667" type="line"/>
      <point x="34" y="284" type="line"/>
    </contour>
    <contour>
      <point x="569" y="-50" type="line"/>
      <point x="569" y="667" type="line"/>
      <point x="377" y="667" type="line"/>
      <point x="372" y="641" type="line"/>
      <point x="372" y="-50" type="line"/>
    </contour>
  </outline>
</glyph>
<glyph name="four.oldtab" format="2">
  <advance width="602"/>
  <outline>
    <contour>
      <point x="28" y="82" type="line"/>
      <point x="581" y="82" type="line"/>
      <point x="581" y="238" type="line"/>
      <point x="98" y="238" type="line"/>
      <point x="83" y="171" type="line"/>
      <point x="318" y="592" type="line"/>
      <point x="325" y="639" type="line"/>
      <point x="243" y="639" type="line"/>
      <point x="28" y="260" type="line"/>
    </contour>
    <contour>
      <point x="505" y="-76" type="line"/>
      <point x="505" y="639" type="line"/>
      <point x="299" y="639" type="line"/>
      <point x="304" y="613" type="line"/>
      <point x="304" y="-76" type="line"/>
    </contour>
  </outline>
</glyph>
<glyph name="grave.uc" format="2">
  <advance width="538"/>
  <anchor x="268" y="694" name="_top"/>
  <outline>
    <contour>
      <point x="329" y="928" type="curve" smooth="yes"/>
      <point x="423" y="822" type="line"/>
      <point x="423" y="778" type="line"/>
      <point x="366" y="778" type="line"/>
      <point x="225" y="807" type="line" smooth="yes"/>
      <point x="143" y="827"/>
      <point x="99" y="859"/>
      <point x="99" y="922" type="curve" smooth="yes"/>
      <point x="99" y="977"/>
      <point x="136" y="1016"/>
      <point x="197" y="1016" type="curve" smooth="yes"/>
      <point x="260" y="1016"/>
      <point x="292" y="976"/>
    </contour>
  </outline>
</glyph>
<glyph name="lira.altprop" format="2">
  <advance width="726"/>
  <outline>
    <contour>
      <point x="43" y="509" type="line"/>
      <point x="43" y="422" type="line"/>
      <point x="532" y="422" type="line"/>
      <point x="532" y="509" type="line"/>
    </contour>
    <contour>
      <point x="43" y="353" type="line"/>
      <point x="43" y="266" type="line"/>
      <point x="532" y="266" type="line"/>
      <point x="532" y="353" type="line"/>
    </contour>
    <contour>
      <point x="66" y="0" type="line"/>
      <point x="690" y="0" type="line"/>
      <point x="690" y="234" type="line"/>
      <point x="579" y="234" type="line"/>
      <point x="564" y="173" type="line" smooth="yes"/>
      <point x="555" y="139"/>
      <point x="526" y="135"/>
      <point x="443" y="135" type="curve" smooth="yes"/>
      <point x="183" y="135" type="line"/>
      <point x="152" y="94" type="line"/>
      <point x="323" y="122"/>
      <point x="383" y="200"/>
      <point x="383" y="295" type="curve" smooth="yes"/>
      <point x="383" y="378"/>
      <point x="334" y="414"/>
      <point x="334" y="557" type="curve" smooth="yes"/>
      <point x="334" y="616"/>
      <point x="357" y="650"/>
      <point x="446" y="650" type="curve" smooth="yes"/>
      <point x="506" y="650"/>
      <point x="557" y="632"/>
      <point x="587" y="604" type="curve"/>
      <point x="582" y="624"/>
      <point x="543" y="696"/>
      <point x="508" y="698" type="curve"/>
      <point x="508" y="561" type="line"/>
      <point x="674" y="561" type="line"/>
      <point x="674" y="703" type="line"/>
      <point x="640" y="720"/>
      <point x="532" y="735"/>
      <point x="437" y="735" type="curve" smooth="yes"/>
      <point x="218" y="735"/>
      <point x="102" y="686"/>
      <point x="102" y="579" type="curve" smooth="yes"/>
      <point x="102" y="473"/>
      <point x="206" y="467"/>
      <point x="206" y="272" type="curve" smooth="yes"/>
      <point x="206" y="201"/>
      <point x="165" y="172"/>
      <point x="66" y="147" type="curve"/>
    </contour>
  </outline>
</glyph>
<glyph name="liraTurkish.proportional" format="2">
  <advance width="785"/>
  <outline>
    <contour>
      <point x="45" y="419" type="line"/>
      <point x="45" y="326" type="line"/>
      <point x="592" y="546" type="line"/>
      <point x="592" y="639" type="line"/>
    </contour>
    <contour>
      <point x="45" y="239" type="line"/>
      <point x="45" y="147" type="line"/>
      <point x="592" y="367" type="line"/>
      <point x="592" y="460" type="line"/>
    </contour>
    <contour>
      <point x="344" y="574" type="line" smooth="yes"/>
      <point x="344" y="603"/>
      <point x="366" y="610"/>
      <point x="397" y="610" type="curve" smooth="yes"/>
      <point x="412" y="610" type="line"/>
      <point x="412" y="710" type="line"/>
      <point x="85" y="710" type="line"/>
      <point x="85" y="610" type="line"/>
      <point x="97" y="610" type="line" smooth="yes"/>
      <point x="135" y="610"/>
      <point x="165" y="603"/>
      <point x="165" y="574" type="curve" smooth="yes"/>
      <point x="165" y="137" type="line" smooth="yes"/>
      <point x="165" y="108"/>
      <point x="135" y="101"/>
      <point x="97" y="101" type="curve" smooth="yes"/>
      <point x="85" y="101" type="line"/>
      <point x="85" y="0" type="line"/>
      <point x="381" y="0" type="line" smooth="yes"/>
      <point x="652" y="0"/>
      <point x="725" y="109"/>
      <point x="749" y="256" type="curve"/>
      <point x="605" y="292" type="line"/>
      <point x="584" y="179"/>
      <point x="559" y="94"/>
      <point x="407" y="94" type="curve" smooth="yes"/>
      <point x="344" y="94" type="line"/>
    </contour>
  </outline>
</glyph>
<glyph name="naira.proportional" format="2">
  <advance width="888"/>
  <outline>
    <contour>
      <point x="231" y="698" type="line"/>
      <point x="487" y="0" type="line"/>
      <point x="712" y="0" type="line"/>
      <point x="712" y="574" type="line" smooth="yes"/>
      <point x="712" y="603"/>
      <point x="733" y="615"/>
      <point x="769" y="615" type="curve" smooth="yes"/>
      <point x="777" y="615" type="line"/>
      <point x="777" y="710" type="line"/>
      <point x="569" y="710" type="line"/>
      <point x="569" y="615" type="line"/>
      <point x="577" y="615" type="line" smooth="yes"/>
      <point x="608" y="615"/>
      <point x="625" y="609"/>
      <point x="625" y="602" type="curve" smooth="yes"/>
      <point x="625" y="35" type="line"/>
      <point x="661" y="18" type="line"/>
      <point x="417" y="710" type="line"/>
      <point x="111" y="710" type="line"/>
      <point x="111" y="615" type="line"/>
      <point x="119" y="615" type="line" smooth="yes"/>
      <point x="154" y="615"/>
      <point x="175" y="608"/>
      <point x="175" y="579" type="curve" smooth="yes"/>
      <point x="175" y="136" type="line" smooth="yes"/>
      <point x="175" y="107"/>
      <point x="154" y="95"/>
      <point x="119" y="95" type="curve" smooth="yes"/>
      <point x="111" y="95" type="line"/>
      <point x="111" y="0" type="line"/>
      <point x="322" y="0" type="line"/>
      <point x="322" y="95" type="line"/>
      <point x="313" y="95" type="line" smooth="yes"/>
      <point x="285" y="95"/>
      <point x="263" y="101"/>
      <point x="263" y="108" type="curve" smooth="yes"/>
      <point x="263" y="696" type="line"/>
    </contour>
    <contour>
      <point x="235" y="521" type="line"/>
      <point x="42" y="521" type="line"/>
      <point x="42" y="417" type="line"/>
      <point x="233" y="417" type="line"/>
    </contour>
    <contour>
      <point x="650" y="184" type="line"/>
      <point x="846" y="184" type="line"/>
      <point x="846" y="288" type="line"/>
      <point x="652" y="288" type="line"/>
    </contour>
    <contour>
      <point x="42" y="184" type="line"/>
      <point x="445" y="184" type="line"/>
      <point x="445" y="198" type="line"/>
      <point x="238" y="275" type="line"/>
      <point x="238" y="288" type="line"/>
      <point x="42" y="288" type="line"/>
    </contour>
    <contour>
      <point x="846" y="417" type="line"/>
      <point x="846" y="521" type="line"/>
      <point x="461" y="521" type="line"/>
      <point x="460" y="508" type="line"/>
      <point x="643" y="430" type="line"/>
      <point x="657" y="417" type="line"/>
    </contour>
  </outline>
</glyph>
<glyph name="nine.den" format="2">
  <advance width="520"/>
  <outline>
    <contour>
      <point x="97" y="55" type="line"/>
      <point x="253" y="66"/>
      <point x="322" y="95"/>
      <point x="322" y="236" type="curve" smooth="yes"/>
      <point x="322" y="347"/>
      <point x="300" y="368"/>
      <point x="260" y="368" type="curve" smooth="yes"/>
      <point x="222" y="368"/>
      <point x="202" y="346"/>
      <point x="202" y="284" type="curve" smooth="yes"/>
      <point x="202" y="233"/>
      <point x="214" y="209"/>
      <point x="250" y="209" type="curve" smooth="yes"/>
      <point x="286" y="209"/>
      <point x="322" y="249"/>
      <point x="341" y="297" type="curve"/>
      <point x="343" y="242" type="line"/>
      <point x="320" y="190"/>
      <point x="276" y="140"/>
      <point x="193" y="140" type="curve" smooth="yes"/>
      <point x="94" y="140"/>
      <point x="49" y="194"/>
      <point x="49" y="280" type="curve" smooth="yes"/>
      <point x="49" y="384"/>
      <point x="136" y="431"/>
      <point x="264" y="431" type="curve" smooth="yes"/>
      <point x="396" y="431"/>
      <point x="475" y="369"/>
      <point x="475" y="236" type="curve" smooth="yes"/>
      <point x="475" y="76"/>
      <point x="363" y="-6"/>
      <point x="107" y="-22" type="curve"/>
    </contour>
  </outline>
</glyph>
<glyph name="nine.lintab" format="2">
  <advance width="602"/>
  <outline>
    <contour>
      <point x="86" y="86" type="line"/>
      <point x="292" y="101"/>
      <point x="373" y="178"/>
      <point x="373" y="437" type="curve" smooth="yes"/>
      <point x="373" y="623"/>
      <point x="356" y="642"/>
      <point x="299" y="642" type="curve" smooth="yes"/>
      <point x="242" y="642"/>
      <point x="229" y="623"/>
      <point x="229" y="490" type="curve" smooth="yes"/>
      <point x="229" y="386"/>
      <point x="241" y="353"/>
      <point x="295" y="353" type="curve" smooth="yes"/>
      <point x="339" y="353"/>
      <point x="364" y="367"/>
      <point x="400" y="419" type="curve"/>
      <point x="407" y="399" type="line"/>
      <point x="372" y="318"/>
      <point x="324" y="260"/>
      <point x="216" y="260" type="curve" smooth="yes"/>
      <point x="92" y="260"/>
      <point x="27" y="331"/>
      <point x="27" y="482" type="curve" smooth="yes"/>
      <point x="27" y="669"/>
      <point x="126" y="735"/>
      <point x="299" y="735" type="curve" smooth="yes"/>
      <point x="480" y="735"/>
      <point x="574" y="656"/>
      <point x="574" y="425" type="curve" smooth="yes"/>
      <point x="574" y="154"/>
      <point x="428" y="4"/>
      <point x="99" y="-18" type="curve"/>
    </contour>
  </outline>
</glyph>
<glyph name="nine.oldprop" format="2">
  <advance width="670"/>
  <outline>
    <contour>
      <point x="89" y="-30" type="line"/>
      <point x="330" y="-11"/>
      <point x="425" y="70"/>
      <point x="425" y="343" type="curve" smooth="yes"/>
      <point x="425" y="536"/>
      <point x="393" y="556"/>
      <point x="324" y="556" type="curve" smooth="yes"/>
      <point x="256" y="556"/>
      <point x="234" y="533"/>
      <point x="234" y="405" type="curve" smooth="yes"/>
      <point x="234" y="298"/>
      <point x="259" y="267"/>
      <point x="320" y="267" type="curve" smooth="yes"/>
      <point x="373" y="267"/>
      <point x="404" y="281"/>
      <point x="449" y="333" type="curve"/>
      <point x="457" y="314" type="line"/>
      <point x="418" y="232"/>
      <point x="360" y="174"/>
      <point x="235" y="174" type="curve" smooth="yes"/>
      <point x="99" y="174"/>
      <point x="28" y="241"/>
      <point x="28" y="395" type="curve" smooth="yes"/>
      <point x="28" y="577"/>
      <point x="139" y="649"/>
      <point x="326" y="649" type="curve" smooth="yes"/>
      <point x="523" y="649"/>
      <point x="633" y="570"/>
      <point x="633" y="331" type="curve" smooth="yes"/>
      <point x="633" y="52"/>
      <point x="465" y="-97"/>
      <point x="103" y="-134" type="curve"/>
    </contour>
  </outline>
</glyph>
<glyph name="nine.oldtab" format="2">
  <advance width="602"/>
  <outline>
    <contour>
      <point x="85" y="-30" type="line"/>
      <point x="294" y="-12"/>
      <point x="374" y="73"/>
      <point x="374" y="343" type="curve" smooth="yes"/>
      <point x="374" y="536"/>
      <point x="356" y="556"/>
      <point x="301" y="556" type="curve" smooth="yes"/>
      <point x="244" y="556"/>
      <point x="233" y="537"/>
      <point x="233" y="404" type="curve" smooth="yes"/>
      <point x="233" y="300"/>
      <point x="244" y="267"/>
      <point x="299" y="267" type="curve" smooth="yes"/>
      <point x="339" y="267"/>
      <point x="363" y="284"/>
      <point x="403" y="331" type="curve"/>
      <point x="409" y="310" type="line"/>
      <point x="369" y="234"/>
      <point x="323" y="174"/>
      <point x="218" y="174" type="curve" smooth="yes"/>
      <point x="94" y="174"/>
      <point x="30" y="245"/>
      <point x="30" y="396" type="curve" smooth="yes"/>
      <point x="30" y="583"/>
      <point x="127" y="649"/>
      <point x="299" y="649" type="curve" smooth="yes"/>
      <point x="480" y="649"/>
      <point x="575" y="570"/>
      <point x="575" y="331" type="curve" smooth="yes"/>
      <point x="575" y="54"/>
      <point x="430" y="-97"/>
      <point x="99" y="-134" type="curve"/>
    </contour>
  </outline>
</glyph>
<glyph name="plus.sub" format="2">
  <advance width="453"/>
  <outline>
    <contour>
      <point x="172" y="250" type="line"/>
      <point x="172" y="-85" type="line"/>
      <point x="281" y="-85" type="line"/>
      <point x="281" y="250" type="line"/>
    </contour>
    <contour>
      <point x="411" y="134" type="line"/>
      <point x="41" y="134" type="line"/>
      <point x="41" y="31" type="line"/>
      <point x="411" y="31" type="line"/>
    </contour>
  </outline>
</glyph>
<glyph name="plus.sup" format="2">
  <advance width="453"/>
  <outline>
    <contour>
      <point x="172" y="755" type="line"/>
      <point x="172" y="420" type="line"/>
      <point x="281" y="420" type="line"/>
      <point x="281" y="755" type="line"/>
    </contour>
    <contour>
      <point x="411" y="639" type="line"/>
      <point x="41" y="639" type="line"/>
      <point x="41" y="536" type="line"/>
      <point x="411" y="536" type="line"/>
    </contour>
  </outline>
</glyph>
<glyph name="ring.uc" format="2">
  <advance width="538"/>
  <anchor x="268" y="731" name="_top"/>
  <outline>
    <contour>
      <point x="194" y="929" type="curve" smooth="yes"/>
      <point x="194" y="972"/>
      <point x="220" y="995"/>
      <point x="267" y="995" type="curve" smooth="yes"/>
      <point x="315" y="995"/>
      <point x="340" y="972"/>
      <point x="340" y="929" type="curve" smooth="yes"/>
      <point x="340" y="887"/>
      <point x="315" y="864"/>
      <point x="267" y="864" type="curve" smooth="yes"/>
      <point x="220" y="864"/>
      <point x="194" y="887"/>
    </contour>
    <contour>
      <point x="464" y="929" type="curve" smooth="yes"/>
      <point x="464" y="1025"/>
      <point x="390" y="1089"/>
      <point x="267" y="1089" type="curve" smooth="yes"/>
      <point x="145" y="1089"/>
      <point x="71" y="1025"/>
      <point x="71" y="929" type="curve" smooth="yes"/>
      <point x="71" y="834"/>
      <point x="145" y="770"/>
      <point x="267" y="770" type="curve" smooth="yes"/>
      <point x="390" y="770"/>
      <point x="464" y="834"/>
    </contour>
  </outline>
</glyph>
<glyph name="ringhalfleft" format="2">
  <advance width="538"/>
  <anchor x="263" y="566" name="_top"/>
  <outline>
    <contour>
      <point x="277" y="693" type="line"/>
      <point x="228" y="693"/>
      <point x="202" y="715"/>
      <point x="202" y="760" type="curve" smooth="yes"/>
      <point x="202" y="805"/>
      <point x="228" y="828"/>
      <point x="277" y="828" type="curve"/>
      <point x="277" y="910" type="line"/>
      <point x="162" y="910"/>
      <point x="91" y="847"/>
      <point x="91" y="760" type="curve" smooth="yes"/>
      <point x="91" y="674"/>
      <point x="162" y="610"/>
      <point x="277" y="610" type="curve"/>
    </contour>
  </outline>
</glyph>
<glyph name="seven.midprop" format="2">
  <advance width="608"/>
  <outline>
    <contour>
      <point x="248" y="512" type="line" smooth="yes"/>
      <point x="176" y="512"/>
      <point x="147" y="505"/>
      <point x="143" y="469" type="curve" smooth="yes"/>
      <point x="136" y="372" type="line"/>
      <point x="48" y="372" type="line"/>
      <point x="48" y="680" type="line"/>
      <point x="577" y="680" type="line"/>
      <point x="577" y="502" type="line"/>
      <point x="453" y="386"/>
      <point x="384" y="288"/>
      <point x="385" y="-42" type="curve"/>
      <point x="148" y="-42" type="line"/>
      <point x="169" y="270"/>
      <point x="409" y="462"/>
      <point x="511" y="529" type="curve"/>
      <point x="530" y="512" type="line"/>
    </contour>
  </outline>
</glyph>
<glyph name="seven.oldtab" format="2">
  <advance width="602"/>
  <outline>
    <contour>
      <point x="249" y="476" type="line" smooth="yes"/>
      <point x="177" y="476"/>
      <point x="147" y="469"/>
      <point x="144" y="433" type="curve" smooth="yes"/>
      <point x="136" y="337" type="line"/>
      <point x="48" y="337" type="line"/>
      <point x="48" y="639" type="line"/>
      <point x="564" y="639" type="line"/>
      <point x="564" y="467" type="line"/>
      <point x="440" y="350"/>
      <point x="369" y="247"/>
      <point x="365" y="-77" type="curve"/>
      <point x="153" y="-77" type="line"/>
      <point x="175" y="240"/>
      <point x="395" y="426"/>
      <point x="497" y="494" type="curve"/>
      <point x="517" y="476" type="line"/>
    </contour>
  </outline>
</glyph>
<glyph name="six.oldtab" format="2">
  <advance width="602"/>
  <outline>
    <contour>
      <point x="520" y="636" type="line"/>
      <point x="313" y="619"/>
      <point x="232" y="539"/>
      <point x="232" y="284" type="curve" smooth="yes"/>
      <point x="232" y="102"/>
      <point x="251" y="83"/>
      <point x="307" y="83" type="curve" smooth="yes"/>
      <point x="363" y="83"/>
      <point x="373" y="106"/>
      <point x="373" y="233" type="curve" smooth="yes"/>
      <point x="373" y="339"/>
      <point x="362" y="370"/>
      <point x="307" y="370" type="curve" smooth="yes"/>
      <point x="267" y="370"/>
      <point x="243" y="353"/>
      <point x="203" y="306" type="curve"/>
      <point x="197" y="326" type="line"/>
      <point x="237" y="403"/>
      <point x="283" y="463"/>
      <point x="392" y="463" type="curve" smooth="yes"/>
      <point x="515" y="463"/>
      <point x="575" y="400"/>
      <point x="575" y="247" type="curve" smooth="yes"/>
      <point x="575" y="64"/>
      <point x="486" y="-10"/>
      <point x="315" y="-10" type="curve" smooth="yes"/>
      <point x="134" y="-10"/>
      <point x="30" y="66"/>
      <point x="30" y="295" type="curve" smooth="yes"/>
      <point x="30" y="560"/>
      <point x="177" y="704"/>
      <point x="507" y="740" type="curve"/>
    </contour>
  </outline>
</glyph>
<glyph name="sterling.altprop" format="2">
  <advance width="722"/>
  <outline>
    <contour>
      <point x="46" y="420" type="line"/>
      <point x="46" y="309" type="line"/>
      <point x="539" y="309" type="line"/>
      <point x="539" y="420" type="line"/>
    </contour>
    <contour>
      <point x="317" y="543" type="curve" smooth="yes"/>
      <point x="317" y="608"/>
      <point x="346" y="632"/>
      <point x="421" y="632" type="curve" smooth="yes"/>
      <point x="486" y="632"/>
      <point x="533" y="614"/>
      <point x="563" y="587" type="curve"/>
      <point x="557" y="606"/>
      <point x="518" y="678"/>
      <point x="484" y="680" type="curve"/>
      <point x="484" y="510" type="line"/>
      <point x="649" y="510" type="line"/>
      <point x="649" y="703" type="line"/>
      <point x="616" y="720"/>
      <point x="513" y="735"/>
      <point x="414" y="735" type="curve" smooth="yes"/>
      <point x="209" y="735"/>
      <point x="88" y="677"/>
      <point x="88" y="553" type="curve" smooth="yes"/>
      <point x="88" y="439"/>
      <point x="191" y="444"/>
      <point x="191" y="272" type="curve" smooth="yes"/>
      <point x="191" y="201"/>
      <point x="151" y="164"/>
      <point x="53" y="139" type="curve"/>
      <point x="53" y="0" type="line"/>
      <point x="674" y="0" type="line"/>
      <point x="674" y="244" type="line"/>
      <point x="562" y="244" type="line"/>
      <point x="547" y="180" type="line" smooth="yes"/>
      <point x="539" y="142"/>
      <point x="510" y="135"/>
      <point x="426" y="135" type="curve" smooth="yes"/>
      <point x="169" y="135" type="line"/>
      <point x="138" y="86" type="line"/>
      <point x="309" y="115"/>
      <point x="369" y="200"/>
      <point x="369" y="295" type="curve" smooth="yes"/>
      <point x="369" y="414"/>
      <point x="317" y="433"/>
    </contour>
  </outline>
</glyph>
<glyph name="three.lintab" format="2">
  <advance width="602"/>
  <outline>
    <contour>
      <point x="321" y="376" type="line"/>
      <point x="491" y="364"/>
      <point x="562" y="317"/>
      <point x="562" y="203" type="curve" smooth="yes"/>
      <point x="562" y="42"/>
      <point x="442" y="-10"/>
      <point x="269" y="-10" type="curve" smooth="yes"/>
      <point x="99" y="-10"/>
      <point x="45" y="57"/>
      <point x="7" y="139" type="curve"/>
      <point x="101" y="187" type="line"/>
      <point x="124" y="148"/>
      <point x="158" y="89"/>
      <point x="250" y="89" type="curve" smooth="yes"/>
      <point x="328" y="89"/>
      <point x="362" y="107"/>
      <point x="362" y="207" type="curve" smooth="yes"/>
      <point x="362" y="281"/>
      <point x="345" y="321"/>
      <point x="244" y="321" type="curve" smooth="yes"/>
      <point x="144" y="321" type="line"/>
      <point x="144" y="423" type="line"/>
      <point x="231" y="423" type="line" smooth="yes"/>
      <point x="320" y="423"/>
      <point x="354" y="464"/>
      <point x="354" y="557" type="curve" smooth="yes"/>
      <point x="354" y="616"/>
      <point x="333" y="642"/>
      <point x="265" y="642" type="curve" smooth="yes"/>
      <point x="213" y="642"/>
      <point x="174" y="629"/>
      <point x="164" y="631" type="curve"/>
      <point x="153" y="644"/>
      <point x="168" y="659"/>
      <point x="201" y="662" type="curve"/>
      <point x="201" y="523" type="line"/>
      <point x="52" y="523" type="line"/>
      <point x="52" y="685" type="line"/>
      <point x="102" y="712"/>
      <point x="188" y="735"/>
      <point x="301" y="735" type="curve" smooth="yes"/>
      <point x="460" y="735"/>
      <point x="547" y="690"/>
      <point x="547" y="563" type="curve" smooth="yes"/>
      <point x="547" y="432"/>
      <point x="442" y="399"/>
      <point x="319" y="380" type="curve"/>
      <point x="363" y="396" type="line"/>
      <point x="363" y="356" type="line"/>
    </contour>
  </outline>
</glyph>
<glyph name="two.den" format="2">
  <advance width="519"/>
  <outline>
    <contour>
      <point x="297" y="100" type="line" smooth="yes"/>
      <point x="356" y="100"/>
      <point x="377" y="104"/>
      <point x="382" y="130" type="curve" smooth="yes"/>
      <point x="388" y="154" type="line"/>
      <point x="470" y="154" type="line"/>
      <point x="470" y="0" type="line"/>
      <point x="59" y="0" type="line"/>
      <point x="59" y="126" type="line"/>
      <point x="210" y="189"/>
      <point x="299" y="233"/>
      <point x="299" y="314" type="curve" smooth="yes"/>
      <point x="299" y="358"/>
      <point x="280" y="368"/>
      <point x="237" y="368" type="curve" smooth="yes"/>
      <point x="201" y="368"/>
      <point x="165" y="358"/>
      <point x="135" y="343" type="curve"/>
      <point x="139" y="362"/>
      <point x="174" y="383"/>
      <point x="194" y="385" type="curve"/>
      <point x="194" y="273" type="line"/>
      <point x="70" y="273" type="line"/>
      <point x="70" y="393" type="line"/>
      <point x="104" y="410"/>
      <point x="169" y="431"/>
      <point x="259" y="431" type="curve" smooth="yes"/>
      <point x="377" y="431"/>
      <point x="457" y="407"/>
      <point x="457" y="315" type="curve" smooth="yes"/>
      <point x="457" y="182"/>
      <point x="263" y="152"/>
      <point x="96" y="86" type="curve"/>
      <point x="86" y="77"/>
      <point x="88" y="97"/>
      <point x="95" y="100" type="curve"/>
    </contour>
  </outline>
</glyph>
<glyph name="two.midprop" format="2">
  <advance width="643"/>
  <outline>
    <contour>
      <point x="379" y="157" type="line" smooth="yes"/>
      <point x="463" y="157"/>
      <point x="492" y="159"/>
      <point x="499" y="196" type="curve" smooth="yes"/>
      <point x="508" y="246" type="line"/>
      <point x="604" y="246" type="line"/>
      <point x="604" y="0" type="line"/>
      <point x="33" y="0" type="line"/>
      <point x="33" y="202" type="line"/>
      <point x="253" y="298"/>
      <point x="379" y="333"/>
      <point x="379" y="504" type="curve" smooth="yes"/>
      <point x="379" y="575"/>
      <point x="345" y="595"/>
      <point x="277" y="595" type="curve" smooth="yes"/>
      <point x="220" y="595"/>
      <point x="169" y="577"/>
      <point x="152" y="573" type="curve"/>
      <point x="139" y="583"/>
      <point x="169" y="611"/>
      <point x="208" y="615" type="curve" smooth="yes"/>
      <point x="208" y="448" type="line"/>
      <point x="41" y="448" type="line"/>
      <point x="41" y="630" type="line"/>
      <point x="93" y="658"/>
      <point x="187" y="694"/>
      <point x="318" y="694" type="curve" smooth="yes"/>
      <point x="502" y="694"/>
      <point x="596" y="621"/>
      <point x="596" y="500" type="curve" smooth="yes"/>
      <point x="596" y="294"/>
      <point x="337" y="249"/>
      <point x="85" y="140" type="curve"/>
      <point x="69" y="140"/>
      <point x="55" y="139"/>
      <point x="74" y="157" type="curve"/>
    </contour>
  </outline>
</glyph>
<glyph name="two.oldprop" format="2">
  <advance width="643"/>
  <outline>
    <contour>
      <point x="613" y="0" type="line"/>
      <point x="31" y="0" type="line"/>
      <point x="31" y="214" type="line"/>
      <point x="270" y="283"/>
      <point x="379" y="300"/>
      <point x="379" y="456" type="curve" smooth="yes"/>
      <point x="379" y="533"/>
      <point x="347" y="550"/>
      <point x="279" y="550" type="curve" smooth="yes"/>
      <point x="222" y="550"/>
      <point x="175" y="532"/>
      <point x="158" y="528" type="curve"/>
      <point x="144" y="538"/>
      <point x="177" y="565"/>
      <point x="214" y="570" type="curve" smooth="yes"/>
      <point x="214" y="403" type="line"/>
      <point x="44" y="403" type="line"/>
      <point x="44" y="584" type="line"/>
      <point x="97" y="613"/>
      <point x="189" y="649"/>
      <point x="320" y="649" type="curve" smooth="yes"/>
      <point x="504" y="649"/>
      <point x="598" y="590"/>
      <point x="598" y="459" type="curve" smooth="yes"/>
      <point x="598" y="256"/>
      <point x="350" y="228"/>
      <point x="86" y="156" type="curve"/>
      <point x="69" y="156"/>
      <point x="53" y="155"/>
      <point x="73" y="173" type="curve"/>
      <point x="613" y="173" type="line"/>
    </contour>
  </outline>
</glyph>
<glyph name="two.oldtab" format="2">
  <advance width="602"/>
  <outline>
    <contour>
      <point x="569" y="0" type="line"/>
      <point x="40" y="0" type="line"/>
      <point x="40" y="205" type="line"/>
      <point x="262" y="278"/>
      <point x="351" y="318"/>
      <point x="351" y="459" type="curve" smooth="yes"/>
      <point x="351" y="526"/>
      <point x="321" y="550"/>
      <point x="262" y="550" type="curve" smooth="yes"/>
      <point x="209" y="550"/>
      <point x="155" y="531"/>
      <point x="141" y="525" type="curve"/>
      <point x="125" y="536"/>
      <point x="163" y="565"/>
      <point x="200" y="569" type="curve" smooth="yes"/>
      <point x="200" y="404" type="line"/>
      <point x="46" y="404" type="line"/>
      <point x="46" y="580" type="line"/>
      <point x="88" y="610"/>
      <point x="180" y="649"/>
      <point x="301" y="649" type="curve" smooth="yes"/>
      <point x="479" y="649"/>
      <point x="560" y="588"/>
      <point x="560" y="457" type="curve" smooth="yes"/>
      <point x="560" y="281"/>
      <point x="348" y="239"/>
      <point x="93" y="157" type="curve"/>
      <point x="72" y="153"/>
      <point x="59" y="155"/>
      <point x="82" y="173" type="curve"/>
      <point x="569" y="173" type="line"/>
    </contour>
  </outline>
</glyph>
<glyph name="zero.lintab" format="2">
  <advance width="602"/>
  <outline>
    <contour>
      <point x="301" y="-11" type="curve" smooth="yes"/>
      <point x="465" y="-11"/>
      <point x="578" y="100"/>
      <point x="578" y="362" type="curve" smooth="yes"/>
      <point x="578" y="624"/>
      <point x="465" y="735"/>
      <point x="301" y="735" type="curve" smooth="yes"/>
      <point x="137" y="735"/>
      <point x="24" y="624"/>
      <point x="24" y="362" type="curve" smooth="yes"/>
      <point x="24" y="100"/>
      <point x="137" y="-11"/>
    </contour>
    <contour>
      <point x="301" y="88" type="curve" smooth="yes"/>
      <point x="246" y="88"/>
      <point x="226" y="115"/>
      <point x="226" y="362" type="curve" smooth="yes"/>
      <point x="226" y="609"/>
      <point x="246" y="636"/>
      <point x="301" y="636" type="curve" smooth="yes"/>
      <point x="356" y="636"/>
      <point x="376" y="609"/>
      <point x="376" y="362" type="curve" smooth="yes"/>
      <point x="376" y="115"/>
      <point x="356" y="88"/>
    </contour>
  </outline>
</glyph>
<glyph name="zero.oldtab" format="2">
  <advance width="602"/>
  <outline>
    <contour>
      <point x="577" y="319" type="curve" smooth="yes"/>
      <point x="577" y="551"/>
      <point x="464" y="649"/>
      <point x="301" y="649" type="curve" smooth="yes"/>
      <point x="138" y="649"/>
      <point x="25" y="551"/>
      <point x="25" y="319" type="curve" smooth="yes"/>
      <point x="25" y="87"/>
      <point x="138" y="-11"/>
      <point x="301" y="-11" type="curve" smooth="yes"/>
      <point x="464" y="-11"/>
      <point x="577" y="87"/>
    </contour>
    <contour>
      <point x="227" y="319" type="curve" smooth="yes"/>
      <point x="227" y="528"/>
      <point x="247" y="550"/>
      <point x="301" y="550" type="curve" smooth="yes"/>
      <point x="355" y="550"/>
      <point x="375" y="528"/>
      <point x="375" y="319" type="curve" smooth="yes"/>
      <point x="375" y="110"/>
      <point x="355" y="88"/>
      <point x="301" y="88" type="curve" smooth="yes"/>
      <point x="247" y="88"/>
      <point x="227" y="110"/>
    </contour>
  </outline>
</glyph>
<glyph name="zero.propslash" format="2">
  <advance width="738"/>
  <outline>
    <contour>
      <point x="219" y="113" type="line"/>
      <point x="545" y="471" type="line"/>
      <point x="522" y="571" type="line"/>
      <point x="194" y="209" type="line"/>
    </contour>
    <contour>
      <point x="371" y="-11" type="curve" smooth="yes"/>
      <point x="561" y="-11"/>
      <point x="701" y="93"/>
      <point x="701" y="342" type="curve" smooth="yes"/>
      <point x="701" y="590"/>
      <point x="561" y="694"/>
      <point x="371" y="694" type="curve" smooth="yes"/>
      <point x="180" y="694"/>
      <point x="40" y="590"/>
      <point x="40" y="342" type="curve" smooth="yes"/>
      <point x="40" y="93"/>
      <point x="180" y="-11"/>
    </contour>
    <contour>
      <point x="371" y="88" type="curve" smooth="yes"/>
      <point x="290" y="88"/>
      <point x="259" y="124"/>
      <point x="259" y="342" type="curve" smooth="yes"/>
      <point x="259" y="559"/>
      <point x="290" y="595"/>
      <point x="371" y="595" type="curve" smooth="yes"/>
      <point x="451" y="595"/>
      <point x="482" y="559"/>
      <point x="482" y="342" type="curve" smooth="yes"/>
      <point x="482" y="124"/>
      <point x="451" y="88"/>
    </contour>
  </outline>
</glyph>
